200 0 1 0           
15 acis_api_access 14 ACIS 34.0.1 NT 24 Mon Aug 12 11:28:22 2024 
1 9.9999999999999995e-07 1e-10 
-0 body $-1 $1 $-1 $-1 #
-1 lump $-1 $-1 $2 $0 #
-2 shell $-1 $-1 $-1 $3 $-1 $1 #
-3 face $-1 $-1 $4 $2 $-1 $5 forward double in #
-4 loop $-1 $-1 $6 $3 #
-5 plane-surface $-1 1 2 3 0 1 0 0 0 1 forward_v I I I I #
-6 coedge $-1 $6 $6 $-1 $7 0 $4 $-1 #
-7 edge $-1 $8 $8 $6 $9 forward #
-8 vertex $-1 $7 $10 #
-9 ellipse-curve $-1 1 2 3 0 1 0 0.70710678118654746 -0 0.70710678118654746 1 I I #
-10 point $-1 1.7071067811865475 2 3.7071067811865475 #
End-of-ACIS-data 