3200 0 1 0           
15 acis_api_access 14 ACIS 34.0.1 NT 24 Thu Aug  8 15:23:55 2024 
1 9.9999999999999995e-07 1e-10 
T @77 X3RXUTX5TVQ5MFAU357XRZJJ67TVE67ESCX4ZC5CUCKCFV857AQVECNW2DMMRP67U8S3R85B3DQ4Q 
-0 body $-1 -1 -1 $-1 0 $1 $-1 $-1 F #
-1 lump $-1 -1 -1 $-1 $-1 $2 $0 F #
-2 shell $-1 -1 -1 $-1 $-1 $-1 $3 $-1 $1 F #
-3 face $4 -1 -1 $-1 $5 $6 $2 $-1 $7 forward single F F #
-4 attrib_annotation-sys-attrib $-1 -1 $-1 $-1 $3 1 1 1 1 1 1 1 1 1 1 1 0 1 0 0 1 0 1 $8 #
-5 face $9 -1 -1 $-1 $10 $11 $2 $-1 $12 forward single F F #
-6 loop $-1 -1 -1 $-1 $-1 $13 $3 F unknown #
-7 plane-surface $-1 -1 -1 $-1 0.2928932188134527 3.8623724356957942 -2.5435609264367001 8.3266726846886741e-17 -0.5 0.8660254037844386 0.70710678118654779 -0.61237243569579425 -0.35355339059327373 forward_v I I I I #
-8 sweep_anno_edge_lat-sweep_annotation-annotation $-1 -1 hooked $14 $15 $3 #
-9 attrib_annotation-sys-attrib $-1 -1 $-1 $-1 $5 1 1 1 1 1 1 1 1 1 1 1 0 1 0 0 1 0 1 $16 #
-10 face $17 -1 -1 $-1 $18 $19 $2 $-1 $20 forward single F F #
-11 loop $-1 -1 -1 $-1 $-1 $21 $5 F unknown #
-12 plane-surface $-1 -1 -1 $-1 -0.060660171779821082 3.4185586535436916 -1.0677461254634055 0.70710678118654746 -0.61237243569579458 -0.35355339059327368 7.4014868308343778e-17 0.49999999999999994 -0.8660254037844386 forward_v I I I I #
-13 coedge $-1 -1 -1 $-1 $22 $23 $24 $25 forward $6 $-1 #
-14 tag-sys-attrib $-1 -1 $-1 $-1 $-1 1 1 1 1 1 1 1 1 1 1 1 0 1 0 0 1 0 1 origin_live $26 #
-15 tag-sys-attrib $-1 -1 $-1 $-1 $-1 1 1 1 1 1 1 1 1 1 1 1 0 1 0 0 1 0 1 origin_lost 1876218752 #
-16 sweep_anno_edge_lat-sweep_annotation-annotation $-1 -1 hooked $27 $28 $5 #
-17 attrib_annotation-sys-attrib $-1 -1 $-1 $-1 $10 1 1 1 1 1 1 1 1 1 1 1 0 1 0 0 1 0 1 $29 #
-18 face $30 -1 -1 $-1 $31 $32 $2 $-1 $33 forward single F F #
-19 loop $-1 -1 -1 $-1 $-1 $34 $10 F unknown #
-20 plane-surface $-1 -1 -1 $-1 0.29289321881345232 2.3623724356957947 0.054515284916615891 -2.7755575615628914e-17 0.49999999999999989 -0.86602540378443837 -0.70710678118654746 0.61237243569579425 0.35355339059327362 forward_v I I I I #
-21 coedge $-1 -1 -1 $-1 $35 $36 $37 $38 forward $11 $-1 #
-22 coedge $-1 -1 -1 $-1 $39 $13 $36 $40 reversed $6 $-1 #
-23 coedge $-1 -1 -1 $-1 $13 $39 $41 $42 forward $6 $-1 #
-24 coedge $-1 -1 -1 $-1 $43 $37 $13 $25 reversed $44 $-1 #
-25 edge $45 -1 -1 $-1 $46 -8.5227809560584761e-16 $47 0.99999999999999856 $13 $48 forward @7 unknown F #
-26 edge $49 -1 -1 $-1 $50 0 $51 0.99999999999999944 $39 $52 forward @7 unknown F #
-27 tag-sys-attrib $-1 -1 $-1 $-1 $-1 1 1 1 1 1 1 1 1 1 1 1 0 1 0 0 1 0 1 origin_live $53 #
-28 tag-sys-attrib $-1 -1 $-1 $-1 $-1 1 1 1 1 1 1 1 1 1 1 1 0 1 0 0 1 0 1 origin_lost 1876218752 #
-29 sweep_anno_edge_lat-sweep_annotation-annotation $-1 -1 hooked $54 $55 $10 #
-30 attrib_annotation-sys-attrib $-1 -1 $-1 $-1 $18 1 1 1 1 1 1 1 1 1 1 1 0 1 0 0 1 0 1 $56 #
-31 face $57 -1 -1 $-1 $58 $59 $2 $-1 $60 forward single F F #
-32 loop $-1 -1 -1 $-1 $-1 $61 $18 F unknown #
-33 plane-surface $-1 -1 -1 $-1 0.64644660940672627 2.8061862178478973 -1.421299516056679 -0.70710678118654746 0.61237243569579458 0.35355339059327384 -3.7007434154171889e-17 -0.50000000000000011 0.8660254037844386 forward_v I I I I #
-34 coedge $-1 -1 -1 $-1 $62 $63 $64 $65 forward $19 $-1 #
-35 coedge $-1 -1 -1 $-1 $66 $21 $63 $67 reversed $11 $-1 #
-36 coedge $-1 -1 -1 $-1 $21 $66 $22 $40 forward $11 $-1 #
-37 coedge $-1 -1 -1 $-1 $24 $64 $21 $38 reversed $44 $-1 #
-38 edge $68 -1 -1 $-1 $47 -1.327995960650065e-16 $69 2.9999999999999996 $21 $70 forward @7 unknown F #
-39 coedge $71 -1 -1 $-1 $23 $22 $72 $26 reversed $6 $-1 #
-40 edge $73 -1 -1 $-1 $51 1 $47 0 $36 $74 forward @7 unknown F #
-41 coedge $-1 -1 -1 $-1 $75 $61 $23 $42 reversed $32 $-1 #
-42 edge $76 -1 -1 $-1 $50 1 $46 0 $23 $77 forward @7 unknown F #
-43 coedge $-1 -1 -1 $-1 $64 $24 $61 $78 reversed $44 $-1 #
-44 loop $-1 -1 -1 $-1 $-1 $24 $79 F unknown #
-45 attrib_annotation-sys-attrib $-1 -1 $-1 $-1 $25 1 1 1 1 1 1 1 1 1 1 1 0 1 0 0 1 0 1 $80 #
-46 vertex $81 -1 -1 $-1 $42 $82 #
-47 vertex $83 -1 -1 $-1 $40 $84 #
-48 straight-curve $-1 -1 -1 $-1 4.1819805153394638 6.6180483963268699 -0.9525706687669675 -0.70710678118654779 0.61237243569579425 0.35355339059327368 I I #
-49 attrib_annotation-sys-attrib $-1 -1 $85 $-1 $26 1 1 1 1 1 1 1 1 1 1 1 0 1 0 0 1 0 1 $8 #
-50 vertex $86 -1 -1 $-1 $87 $88 #
-51 vertex $89 -1 -1 $-1 $26 $90 #
-52 straight-curve $-1 -1 -1 $-1 0.64644660940672638 3.5561862178478973 -2.7203376217333366 -0.70710678118654779 0.61237243569579425 0.35355339059327373 I I #
-53 edge $91 -1 -1 $-1 $51 0 $92 2.9999999999999991 $66 $93 forward @7 unknown F #
-54 tag-sys-attrib $-1 -1 $-1 $-1 $-1 1 1 1 1 1 1 1 1 1 1 1 0 1 0 0 1 0 1 origin_live $94 #
-55 tag-sys-attrib $-1 -1 $-1 $-1 $-1 1 1 1 1 1 1 1 1 1 1 1 0 1 0 0 1 0 1 origin_lost 1876218752 #
-56 sweep_anno_edge_lat-sweep_annotation-annotation $-1 -1 hooked $95 $96 $18 #
-57 attrib_annotation-sys-attrib $-1 -1 $-1 $-1 $31 1 1 1 1 1 1 1 1 1 1 1 0 1 0 0 1 0 1 $97 #
-58 face $98 -1 -1 $-1 $99 $100 $2 $-1 $101 forward single F F #
-59 loop $-1 -1 -1 $-1 $-1 $102 $31 F unknown #
-60 cone-surface $-1 -1 -1 $-1 0.29289321881345259 2.6713894300707421 -0.48071784974301934 0.70710678118654757 0.61237243569579447 0.35355339059327373 -0.70710678118654735 0.053355441320846866 1.3217992271451282 1 I I 0 1 1.5000000000000002 forward I I I I #
-61 coedge $-1 -1 -1 $-1 $41 $103 $43 $78 forward $32 $-1 #
-62 coedge $-1 -1 -1 $-1 $104 $34 $103 $105 reversed $19 $-1 #
-63 coedge $-1 -1 -1 $-1 $34 $104 $35 $67 forward $19 $-1 #
-64 coedge $-1 -1 -1 $-1 $37 $43 $34 $65 reversed $44 $-1 #
-65 edge $106 -1 -1 $-1 $69 6.1676422680328181e-16 $107 0.99999999999999978 $34 $108 forward @7 unknown F #
-66 coedge $109 -1 -1 $-1 $36 $35 $110 $53 reversed $11 $-1 #
-67 edge $111 -1 -1 $-1 $92 1 $69 0 $63 $112 forward @7 unknown F #
-68 attrib_annotation-sys-attrib $-1 -1 $-1 $-1 $38 1 1 1 1 1 1 1 1 1 1 1 0 1 0 0 1 0 1 $113 #
-69 vertex $114 -1 -1 $-1 $67 $115 #
-70 straight-curve $-1 -1 -1 $-1 3.4748737341529168 7.2304208320226637 -0.59901727817369399 -7.4014868308343765e-17 -0.49999999999999983 0.86602540378443826 I I #
-71 attrib_annotation-sys-attrib $-1 -1 $116 $-1 $39 1 1 1 1 1 1 1 1 1 1 1 0 1 0 0 1 0 1 $117 #
-72 coedge $118 -1 -1 $-1 $110 $119 $39 $26 forward $120 $-1 #
-73 attrib_annotation-sys-attrib $-1 -1 $-1 $-1 $40 1 1 1 1 1 1 1 1 1 1 1 0 1 0 0 1 0 1 $121 #
-74 straight-curve $-1 -1 -1 $-1 -0.060660171779820971 4.1685586535436912 -2.3667842311400631 0.70710678118654757 0.61237243569579447 0.35355339059327373 I I #
-75 coedge $122 -1 -1 $-1 $103 $41 $119 $87 reversed $32 $-1 #
-76 attrib_annotation-sys-attrib $-1 -1 $-1 $-1 $42 1 1 1 1 1 1 1 1 1 1 1 0 1 0 0 1 0 1 $123 #
-77 straight-curve $-1 -1 -1 $-1 0.64644660940672638 3.5561862178478973 -2.7203376217333366 0.70710678118654757 0.61237243569579447 0.35355339059327373 I I #
-78 edge $124 -1 -1 $-1 $107 0 $46 2.9999999999999991 $61 $125 forward @7 unknown F #
-79 face $126 -1 -1 $-1 $127 $128 $2 $-1 $129 forward single F F #
-80 sweep_anno_edge_top-sweep_annotation-annotation $-1 -1 hooked $130 $131 $25 #
-81 attrib_annotation-sys-attrib $-1 -1 $-1 $-1 $46 1 1 1 1 1 1 1 1 1 1 1 0 1 0 0 1 0 1 $132 #
-82 point $-1 -1 -1 $-1 4.1819805153394629 6.6180483963268681 -0.95257066876696861 #
-83 attrib_annotation-sys-attrib $-1 -1 $-1 $-1 $47 1 1 1 1 1 1 1 1 1 1 1 0 1 0 0 1 0 1 $133 #
-84 point $-1 -1 -1 $-1 3.4748737341529163 7.2304208320226628 -0.59901727817369466 #
-85 attrib_annotation-sys-attrib $-1 -1 $134 $49 $26 1 1 1 1 1 1 1 1 1 1 1 0 1 0 0 1 0 1 $80 #
-86 attrib_annotation-sys-attrib $-1 -1 $135 $-1 $50 1 1 1 1 1 1 1 1 1 1 1 0 1 0 0 1 0 1 $123 #
-87 edge $136 -1 -1 $-1 $137 0 $50 3 $75 $138 forward @7 unknown F #
-88 point $-1 -1 -1 $-1 0.64644660940672638 3.5561862178478973 -2.7203376217333366 #
-89 attrib_annotation-sys-attrib $-1 -1 $139 $-1 $51 1 1 1 1 1 1 1 1 1 1 1 0 1 0 0 1 0 1 $121 #
-90 point $-1 -1 -1 $-1 -0.060660171779820971 4.1685586535436912 -2.3667842311400631 #
-91 attrib_annotation-sys-attrib $-1 -1 $140 $-1 $53 1 1 1 1 1 1 1 1 1 1 1 0 1 0 0 1 0 1 $16 #
-92 vertex $141 -1 -1 $-1 $53 $142 #
-93 straight-curve $-1 -1 -1 $-1 -0.060660171779820971 4.1685586535436912 -2.3667842311400631 -7.4014868308343778e-17 -0.49999999999999994 0.8660254037844386 I I #
-94 edge $143 -1 -1 $-1 $92 0 $137 0.99999999999999944 $104 $144 forward @7 unknown F #
-95 tag-sys-attrib $-1 -1 $-1 $-1 $-1 1 1 1 1 1 1 1 1 1 1 1 0 1 0 0 1 0 1 origin_live $87 #
-96 tag-sys-attrib $-1 -1 $-1 $-1 $-1 1 1 1 1 1 1 1 1 1 1 1 0 1 0 0 1 0 1 origin_lost 1876218752 #
-97 sweep_anno_edge_lat-sweep_annotation-annotation $-1 -1 hooked $145 $146 $31 #
-98 attrib_annotation-sys-attrib $-1 -1 $-1 $-1 $58 1 1 1 1 1 1 1 1 1 1 1 0 1 0 0 1 0 1 $147 #
-99 face $148 -1 -1 $-1 $149 $150 $2 $-1 $151 forward single F F #
-100 loop $-1 -1 -1 $-1 $-1 $152 $58 F unknown #
-101 plane-surface $-1 -1 -1 $-1 -0.41421356237309481 3.7247448713915894 -0.89096943016676833 -0.70710678118654746 0.61237243569579458 0.35355339059327379 -5.5511151231257827e-17 -0.50000000000000011 0.8660254037844386 forward_v I I I I #
-102 coedge $-1 -1 -1 $-1 $153 $154 $155 $156 forward $59 $-1 #
-103 coedge $-1 -1 -1 $-1 $61 $75 $62 $105 forward $32 $-1 #
-104 coedge $157 -1 -1 $-1 $63 $62 $158 $94 reversed $19 $-1 #
-105 edge $159 -1 -1 $-1 $137 1 $107 0 $103 $160 forward @7 unknown F #
-106 attrib_annotation-sys-attrib $-1 -1 $-1 $-1 $65 1 1 1 1 1 1 1 1 1 1 1 0 1 0 0 1 0 1 $161 #
-107 vertex $162 -1 -1 $-1 $105 $163 #
-108 straight-curve $-1 -1 -1 $-1 3.4748737341529168 5.7304208320226646 1.9990589331796214 0.70710678118654724 -0.61237243569579403 -0.35355339059327345 I I #
-109 attrib_annotation-sys-attrib $-1 -1 $164 $-1 $66 1 1 1 1 1 1 1 1 1 1 1 0 1 0 0 1 0 1 $165 #
-110 coedge $166 -1 -1 $-1 $158 $72 $66 $53 forward $120 $-1 #
-111 attrib_annotation-sys-attrib $-1 -1 $-1 $-1 $67 1 1 1 1 1 1 1 1 1 1 1 0 1 0 0 1 0 1 $167 #
-112 straight-curve $-1 -1 -1 $-1 -0.060660171779821193 2.6685586535436916 0.23129198021325259 0.70710678118654757 0.61237243569579447 0.35355339059327373 I I #
-113 sweep_anno_edge_top-sweep_annotation-annotation $-1 -1 hooked $168 $169 $38 #
-114 attrib_annotation-sys-attrib $-1 -1 $-1 $-1 $69 1 1 1 1 1 1 1 1 1 1 1 0 1 0 0 1 0 1 $170 #
-115 point $-1 -1 -1 $-1 3.4748737341529159 5.7304208320226628 1.9990589331796209 #
-116 tag-sys-attrib $-1 -1 $-1 $71 $39 1 1 1 1 1 1 1 1 1 1 1 0 1 0 0 1 0 1 origin_live $39 #
-117 copy_annotation-annotation $-1 -1 hooked $72 $171 #
-118 attrib_annotation-sys-attrib $-1 -1 $-1 $-1 $72 1 1 1 1 1 1 1 1 1 1 1 0 1 0 0 1 0 1 $117 #
-119 coedge $172 -1 -1 $-1 $72 $158 $75 $87 forward $120 $-1 #
-120 loop $-1 -1 -1 $-1 $-1 $119 $127 F unknown #
-121 sweep_anno_vertex_lat-sweep_annotation-annotation $-1 -1 hooked $173 $174 $40 $-1 $-1 $-1 $-1 #
-122 attrib_annotation-sys-attrib $-1 -1 $175 $-1 $75 1 1 1 1 1 1 1 1 1 1 1 0 1 0 0 1 0 1 $176 #
-123 sweep_anno_vertex_lat-sweep_annotation-annotation $-1 -1 hooked $177 $178 $42 $-1 $-1 $-1 $-1 #
-124 attrib_annotation-sys-attrib $-1 -1 $-1 $-1 $78 1 1 1 1 1 1 1 1 1 1 1 0 1 0 0 1 0 1 $179 #
-125 straight-curve $-1 -1 -1 $-1 4.1819805153394638 5.1180483963268699 1.6455055425863476 3.7007434154171883e-17 0.5 -0.86602540378443837 I I #
-126 attrib_annotation-sys-attrib $-1 -1 $180 $-1 $79 1 1 1 1 1 1 1 1 1 1 1 0 1 0 0 1 0 1 $181 #
-127 face $182 -1 -1 $-1 $-1 $183 $2 $-1 $184 reversed single F F #
-128 loop $-1 -1 -1 $-1 $44 $155 $79 F unknown #
-129 plane-surface $-1 -1 -1 $-1 4.5355339059327378 4.0618621784789726 2.7677669529663684 0.70710678118654746 0.61237243569579447 0.35355339059327368 0.44721359549995793 -2.4825341532472729e-17 -0.89442719099991574 forward_v I I I I #
-130 tag-sys-attrib $-1 -1 $-1 $-1 $-1 1 1 1 1 1 1 1 1 1 1 1 0 1 0 0 1 0 1 origin_live $26 #
-131 tag-sys-attrib $-1 -1 $-1 $-1 $-1 1 1 1 1 1 1 1 1 1 1 1 0 1 0 0 1 0 1 origin_lost 1876218752 #
-132 sweep_anno_vertex_top-sweep_annotation-annotation $-1 -1 hooked $185 $186 $46 $-1 $-1 $-1 $-1 #
-133 sweep_anno_vertex_top-sweep_annotation-annotation $-1 -1 hooked $187 $188 $47 $-1 $-1 $-1 $-1 #
-134 tag-sys-attrib $-1 -1 $-1 $85 $26 1 1 1 1 1 1 1 1 1 1 1 0 1 0 0 1 0 1 origin_live $26 #
-135 attrib_annotation-sys-attrib $-1 -1 $189 $86 $50 1 1 1 1 1 1 1 1 1 1 1 0 1 0 0 1 0 1 $132 #
-136 attrib_annotation-sys-attrib $-1 -1 $190 $-1 $87 1 1 1 1 1 1 1 1 1 1 1 0 1 0 0 1 0 1 $56 #
-137 vertex $191 -1 -1 $-1 $87 $192 #
-138 straight-curve $-1 -1 -1 $-1 0.64644660940672627 2.0561862178478973 -0.12226141038002103 3.7007434154171889e-17 0.50000000000000011 -0.8660254037844386 I I #
-139 attrib_annotation-sys-attrib $-1 -1 $193 $89 $51 1 1 1 1 1 1 1 1 1 1 1 0 1 0 0 1 0 1 $133 #
-140 attrib_annotation-sys-attrib $-1 -1 $194 $91 $53 1 1 1 1 1 1 1 1 1 1 1 0 1 0 0 1 0 1 $113 #
-141 attrib_annotation-sys-attrib $-1 -1 $195 $-1 $92 1 1 1 1 1 1 1 1 1 1 1 0 1 0 0 1 0 1 $167 #
-142 point $-1 -1 -1 $-1 -0.060660171779821193 2.6685586535436916 0.23129198021325259 #
-143 attrib_annotation-sys-attrib $-1 -1 $196 $-1 $94 1 1 1 1 1 1 1 1 1 1 1 0 1 0 0 1 0 1 $29 #
-144 straight-curve $-1 -1 -1 $-1 -0.060660171779821193 2.6685586535436916 0.23129198021325259 0.70710678118654746 -0.61237243569579425 -0.35355339059327362 I I #
-145 tag-sys-attrib $-1 -1 $-1 $-1 $-1 1 1 1 1 1 1 1 1 1 1 1 0 1 0 0 1 0 1 origin_live $197 #
-146 tag-sys-attrib $-1 -1 $-1 $-1 $-1 1 1 1 1 1 1 1 1 1 1 1 0 1 0 0 1 0 1 origin_lost 1876218752 #
-147 sweep_anno_edge_lat-sweep_annotation-annotation $-1 -1 hooked $198 $199 $58 #
-148 attrib_annotation-sys-attrib $-1 -1 $-1 $-1 $99 1 1 1 1 1 1 1 1 1 1 1 0 1 0 0 1 0 1 $200 #
-149 face $201 -1 -1 $-1 $79 $202 $2 $-1 $203 forward single F F #
-150 loop $-1 -1 -1 $-1 $-1 $204 $99 F unknown #
-151 cone-surface $-1 -1 -1 $-1 0.2928932188134527 3.5533554413208472 -2.0083277917770643 0.70710678118654757 0.61237243569579447 0.35355339059327373 0.70710678118654768 -0.053355441320847206 -1.3217992271451284 1 I I 0 1 1.5000000000000004 forward I I I I #
-152 coedge $-1 -1 -1 $-1 $205 $206 $207 $208 forward $100 $-1 #
-153 coedge $-1 -1 -1 $-1 $209 $102 $206 $210 reversed $59 $-1 #
-154 coedge $-1 -1 -1 $-1 $102 $209 $211 $212 forward $59 $-1 #
-155 coedge $-1 -1 -1 $-1 $213 $207 $102 $156 reversed $128 $-1 #
-156 edge $214 -1 -1 $-1 $215 -1.4594553124539322 $216 2.4671622769447924e-16 $102 $217 forward @7 unknown F #
-157 attrib_annotation-sys-attrib $-1 -1 $218 $-1 $104 1 1 1 1 1 1 1 1 1 1 1 0 1 0 0 1 0 1 $219 #
-158 coedge $220 -1 -1 $-1 $119 $110 $104 $94 forward $120 $-1 #
-159 attrib_annotation-sys-attrib $-1 -1 $-1 $-1 $105 1 1 1 1 1 1 1 1 1 1 1 0 1 0 0 1 0 1 $221 #
-160 straight-curve $-1 -1 -1 $-1 0.64644660940672627 2.0561862178478973 -0.12226141038002103 0.70710678118654757 0.61237243569579447 0.35355339059327373 I I #
-161 sweep_anno_edge_top-sweep_annotation-annotation $-1 -1 hooked $222 $223 $65 #
-162 attrib_annotation-sys-attrib $-1 -1 $-1 $-1 $107 1 1 1 1 1 1 1 1 1 1 1 0 1 0 0 1 0 1 $224 #
-163 point $-1 -1 -1 $-1 4.1819805153394638 5.1180483963268699 1.6455055425863476 #
-164 tag-sys-attrib $-1 -1 $-1 $109 $66 1 1 1 1 1 1 1 1 1 1 1 0 1 0 0 1 0 1 origin_live $66 #
-165 copy_annotation-annotation $-1 -1 hooked $110 $225 #
-166 attrib_annotation-sys-attrib $-1 -1 $-1 $-1 $110 1 1 1 1 1 1 1 1 1 1 1 0 1 0 0 1 0 1 $165 #
-167 sweep_anno_vertex_lat-sweep_annotation-annotation $-1 -1 hooked $226 $227 $67 $-1 $-1 $-1 $-1 #
-168 tag-sys-attrib $-1 -1 $-1 $-1 $-1 1 1 1 1 1 1 1 1 1 1 1 0 1 0 0 1 0 1 origin_live $53 #
-169 tag-sys-attrib $-1 -1 $-1 $-1 $-1 1 1 1 1 1 1 1 1 1 1 1 0 1 0 0 1 0 1 origin_lost 1876218752 #
-170 sweep_anno_vertex_top-sweep_annotation-annotation $-1 -1 hooked $228 $229 $69 $-1 $-1 $-1 $-1 #
-171 tag-sys-attrib $-1 -1 $-1 $-1 $-1 1 1 1 1 1 1 1 1 1 1 1 0 1 0 0 1 0 1 origin_live $39 #
-172 attrib_annotation-sys-attrib $-1 -1 $-1 $-1 $119 1 1 1 1 1 1 1 1 1 1 1 0 1 0 0 1 0 1 $176 #
-173 tag-sys-attrib $-1 -1 $-1 $-1 $-1 1 1 1 1 1 1 1 1 1 1 1 0 1 0 0 1 0 1 origin_live $51 #
-174 tag-sys-attrib $-1 -1 $-1 $-1 $-1 1 1 1 1 1 1 1 1 1 1 1 0 1 0 0 1 0 1 origin_lost 1876218752 #
-175 tag-sys-attrib $-1 -1 $-1 $122 $75 1 1 1 1 1 1 1 1 1 1 1 0 1 0 0 1 0 1 origin_live $75 #
-176 copy_annotation-annotation $-1 -1 hooked $119 $230 #
-177 tag-sys-attrib $-1 -1 $-1 $-1 $-1 1 1 1 1 1 1 1 1 1 1 1 0 1 0 0 1 0 1 origin_live $50 #
-178 tag-sys-attrib $-1 -1 $-1 $-1 $-1 1 1 1 1 1 1 1 1 1 1 1 0 1 0 0 1 0 1 origin_lost 1876218752 #
-179 sweep_anno_edge_top-sweep_annotation-annotation $-1 -1 hooked $231 $232 $78 #
-180 attrib_annotation-sys-attrib $-1 -1 $233 $126 $79 1 1 1 1 1 1 1 1 1 1 1 0 1 0 0 1 0 1 $234 #
-181 sweep_anno_end_caps-annotation $-1 -1 hooked $79 $127 #
-182 attrib_annotation-sys-attrib $-1 -1 $235 $-1 $127 1 1 1 1 1 1 1 1 1 1 1 0 1 0 0 1 0 1 $181 #
-183 loop $-1 -1 -1 $-1 $120 $236 $127 F unknown #
-184 plane-surface $-1 -1 -1 $-1 1 1 1 0.70710678118654746 0.61237243569579447 0.35355339059327373 0.44721359549995793 0 -0.89442719099991586 forward_v I I I I #
-185 tag-sys-attrib $-1 -1 $-1 $-1 $-1 1 1 1 1 1 1 1 1 1 1 1 0 1 0 0 1 0 1 origin_live $50 #
-186 tag-sys-attrib $-1 -1 $-1 $-1 $-1 1 1 1 1 1 1 1 1 1 1 1 0 1 0 0 1 0 1 origin_lost 1876218752 #
-187 tag-sys-attrib $-1 -1 $-1 $-1 $-1 1 1 1 1 1 1 1 1 1 1 1 0 1 0 0 1 0 1 origin_live $51 #
-188 tag-sys-attrib $-1 -1 $-1 $-1 $-1 1 1 1 1 1 1 1 1 1 1 1 0 1 0 0 1 0 1 origin_lost 1876218752 #
-189 tag-sys-attrib $-1 -1 $-1 $135 $50 1 1 1 1 1 1 1 1 1 1 1 0 1 0 0 1 0 1 origin_live $50 #
-190 attrib_annotation-sys-attrib $-1 -1 $237 $136 $87 1 1 1 1 1 1 1 1 1 1 1 0 1 0 0 1 0 1 $179 #
-191 attrib_annotation-sys-attrib $-1 -1 $238 $-1 $137 1 1 1 1 1 1 1 1 1 1 1 0 1 0 0 1 0 1 $221 #
-192 point $-1 -1 -1 $-1 0.64644660940672627 2.0561862178478973 -0.12226141038002103 #
-193 tag-sys-attrib $-1 -1 $-1 $139 $51 1 1 1 1 1 1 1 1 1 1 1 0 1 0 0 1 0 1 origin_live $51 #
-194 tag-sys-attrib $-1 -1 $-1 $140 $53 1 1 1 1 1 1 1 1 1 1 1 0 1 0 0 1 0 1 origin_live $53 #
-195 attrib_annotation-sys-attrib $-1 -1 $239 $141 $92 1 1 1 1 1 1 1 1 1 1 1 0 1 0 0 1 0 1 $170 #
-196 attrib_annotation-sys-attrib $-1 -1 $240 $143 $94 1 1 1 1 1 1 1 1 1 1 1 0 1 0 0 1 0 1 $161 #
-197 edge $241 -1 -1 $-1 $242 0 $243 1.4594553124539322 $209 $244 forward @7 unknown F #
-198 tag-sys-attrib $-1 -1 $-1 $-1 $-1 1 1 1 1 1 1 1 1 1 1 1 0 1 0 0 1 0 1 origin_live $245 #
-199 tag-sys-attrib $-1 -1 $-1 $-1 $-1 1 1 1 1 1 1 1 1 1 1 1 0 1 0 0 1 0 1 origin_lost 1876218752 #
-200 sweep_anno_edge_lat-sweep_annotation-annotation $-1 -1 hooked $246 $247 $99 #
-201 attrib_annotation-sys-attrib $-1 -1 $-1 $-1 $149 1 1 1 1 1 1 1 1 1 1 1 0 1 0 0 1 0 1 $248 #
-202 loop $-1 -1 -1 $-1 $-1 $249 $149 F unknown #
-203 plane-surface $-1 -1 -1 $-1 1.0000000000000002 2.5 -1.598076211353316 0.70710678118654746 -0.61237243569579458 -0.35355339059327379 5.5511151231257839e-17 0.50000000000000011 -0.86602540378443871 forward_v I I I I #
-204 coedge $-1 -1 -1 $-1 $250 $251 $252 $253 forward $150 $-1 #
-205 coedge $-1 -1 -1 $-1 $254 $152 $251 $255 reversed $100 $-1 #
-206 coedge $-1 -1 -1 $-1 $152 $254 $153 $210 forward $100 $-1 #
-207 coedge $-1 -1 -1 $-1 $155 $252 $152 $208 reversed $128 $-1 #
-208 edge $256 -1 -1 $-1 $216 -3.9999999999999996 $257 9.0198467061843191e-16 $152 $258 forward @7 unknown F #
-209 coedge $259 -1 -1 $-1 $154 $153 $260 $197 forward $59 $-1 #
-210 edge $261 -1 -1 $-1 $242 0 $216 5 $206 $262 forward @7 unknown F #
-211 coedge $-1 -1 -1 $-1 $263 $249 $154 $212 reversed $202 $-1 #
-212 edge $264 -1 -1 $-1 $243 0 $215 5 $154 $265 forward @7 unknown F #
-213 coedge $-1 -1 -1 $-1 $252 $155 $249 $266 reversed $128 $-1 #
-214 attrib_annotation-sys-attrib $-1 -1 $-1 $-1 $156 1 1 1 1 1 1 1 1 1 1 1 0 1 0 0 1 0 1 $267 #
-215 vertex $268 -1 -1 $-1 $212 $269 #
-216 vertex $270 -1 -1 $-1 $210 $271 #
-217 ellipse-curve $-1 -1 -1 $-1 3.8284271247461903 5.7332516085497147 1.2870491032233495 -0.70710678118654746 -0.61237243569579447 -0.35355339059327368 -0.70710678118654746 0.053355441320846832 1.321799227145128 1 I I #
-218 tag-sys-attrib $-1 -1 $-1 $157 $104 1 1 1 1 1 1 1 1 1 1 1 0 1 0 0 1 0 1 origin_live $104 #
-219 copy_annotation-annotation $-1 -1 hooked $158 $272 #
-220 attrib_annotation-sys-attrib $-1 -1 $-1 $-1 $158 1 1 1 1 1 1 1 1 1 1 1 0 1 0 0 1 0 1 $219 #
-221 sweep_anno_vertex_lat-sweep_annotation-annotation $-1 -1 hooked $273 $274 $105 $-1 $-1 $-1 $-1 #
-222 tag-sys-attrib $-1 -1 $-1 $-1 $-1 1 1 1 1 1 1 1 1 1 1 1 0 1 0 0 1 0 1 origin_live $94 #
-223 tag-sys-attrib $-1 -1 $-1 $-1 $-1 1 1 1 1 1 1 1 1 1 1 1 0 1 0 0 1 0 1 origin_lost 1876218752 #
-224 sweep_anno_vertex_top-sweep_annotation-annotation $-1 -1 hooked $275 $276 $107 $-1 $-1 $-1 $-1 #
-225 tag-sys-attrib $-1 -1 $-1 $-1 $-1 1 1 1 1 1 1 1 1 1 1 1 0 1 0 0 1 0 1 origin_live $66 #
-226 tag-sys-attrib $-1 -1 $-1 $-1 $-1 1 1 1 1 1 1 1 1 1 1 1 0 1 0 0 1 0 1 origin_live $92 #
-227 tag-sys-attrib $-1 -1 $-1 $-1 $-1 1 1 1 1 1 1 1 1 1 1 1 0 1 0 0 1 0 1 origin_lost 1876218752 #
-228 tag-sys-attrib $-1 -1 $-1 $-1 $-1 1 1 1 1 1 1 1 1 1 1 1 0 1 0 0 1 0 1 origin_live $92 #
-229 tag-sys-attrib $-1 -1 $-1 $-1 $-1 1 1 1 1 1 1 1 1 1 1 1 0 1 0 0 1 0 1 origin_lost 1876218752 #
-230 tag-sys-attrib $-1 -1 $-1 $-1 $-1 1 1 1 1 1 1 1 1 1 1 1 0 1 0 0 1 0 1 origin_live $75 #
-231 tag-sys-attrib $-1 -1 $-1 $-1 $-1 1 1 1 1 1 1 1 1 1 1 1 0 1 0 0 1 0 1 origin_live $87 #
-232 tag-sys-attrib $-1 -1 $-1 $-1 $-1 1 1 1 1 1 1 1 1 1 1 1 0 1 0 0 1 0 1 origin_lost 1876218752 #
-233 tag-sys-attrib $-1 -1 $-1 $180 $79 1 1 1 1 1 1 1 1 1 1 1 0 1 0 0 1 0 1 origin_live $79 #
-234 copy_annotation-annotation $-1 -1 hooked $127 $277 #
-235 attrib_annotation-sys-attrib $-1 -1 $-1 $182 $127 1 1 1 1 1 1 1 1 1 1 1 0 1 0 0 1 0 1 $234 #
-236 coedge $278 -1 -1 $-1 $260 $279 $263 $280 reversed $183 $-1 #
-237 tag-sys-attrib $-1 -1 $-1 $190 $87 1 1 1 1 1 1 1 1 1 1 1 0 1 0 0 1 0 1 origin_live $87 #
-238 attrib_annotation-sys-attrib $-1 -1 $281 $191 $137 1 1 1 1 1 1 1 1 1 1 1 0 1 0 0 1 0 1 $224 #
-239 tag-sys-attrib $-1 -1 $-1 $195 $92 1 1 1 1 1 1 1 1 1 1 1 0 1 0 0 1 0 1 origin_live $92 #
-240 tag-sys-attrib $-1 -1 $-1 $196 $94 1 1 1 1 1 1 1 1 1 1 1 0 1 0 0 1 0 1 origin_live $94 #
-241 attrib_annotation-sys-attrib $-1 -1 $282 $-1 $197 1 1 1 1 1 1 1 1 1 1 1 0 1 0 0 1 0 1 $97 #
-242 vertex $283 -1 -1 $-1 $245 $284 #
-243 vertex $285 -1 -1 $-1 $280 $286 #
-244 ellipse-curve $-1 -1 -1 $-1 0.29289321881345259 2.6713894300707421 -0.48071784974301934 0.70710678118654746 0.61237243569579447 0.35355339059327373 -0.70710678118654746 0.053355441320846797 1.3217992271451282 1 I I #
-245 edge $287 -1 -1 $-1 $288 -3.8459253727671276e-16 $242 4 $254 $289 forward @7 unknown F #
-246 tag-sys-attrib $-1 -1 $-1 $-1 $-1 1 1 1 1 1 1 1 1 1 1 1 0 1 0 0 1 0 1 origin_live $290 #
-247 tag-sys-attrib $-1 -1 $-1 $-1 $-1 1 1 1 1 1 1 1 1 1 1 1 0 1 0 0 1 0 1 origin_lost 1876218752 #
-248 sweep_anno_edge_lat-sweep_annotation-annotation $-1 -1 hooked $291 $292 $149 #
-249 coedge $-1 -1 -1 $-1 $211 $293 $213 $266 forward $202 $-1 #
-250 coedge $-1 -1 -1 $-1 $294 $204 $293 $295 reversed $150 $-1 #
-251 coedge $-1 -1 -1 $-1 $204 $294 $205 $255 forward $150 $-1 #
-252 coedge $-1 -1 -1 $-1 $207 $213 $204 $253 reversed $128 $-1 #
-253 edge $296 -1 -1 $-1 $257 -1.4594553124539318 $297 -1.9737298215558328e-16 $204 $298 forward @7 unknown F #
-254 coedge $299 -1 -1 $-1 $206 $205 $300 $245 forward $100 $-1 #
-255 edge $301 -1 -1 $-1 $288 0 $257 4.9999999999999982 $251 $302 forward @7 unknown F #
-256 attrib_annotation-sys-attrib $-1 -1 $-1 $-1 $208 1 1 1 1 1 1 1 1 1 1 1 0 1 0 0 1 0 1 $303 #
-257 vertex $304 -1 -1 $-1 $255 $305 #
-258 straight-curve $-1 -1 -1 $-1 3.1213203435596428 7.786607049870562 -0.8552532847692762 5.5511151231257821e-17 0.5 -0.86602540378443837 I I #
-259 attrib_annotation-sys-attrib $-1 -1 $306 $-1 $209 1 1 1 1 1 1 1 1 1 1 1 0 1 0 0 1 0 1 $307 #
-260 coedge $308 -1 -1 $-1 $300 $236 $209 $197 reversed $183 $-1 #
-261 attrib_annotation-sys-attrib $-1 -1 $-1 $-1 $210 1 1 1 1 1 1 1 1 1 1 1 0 1 0 0 1 0 1 $309 #
-262 straight-curve $-1 -1 -1 $-1 -0.41421356237309492 2.7247448713915889 0.84108137740210887 0.70710678118654757 0.61237243569579447 0.35355339059327373 I I #
-263 coedge $310 -1 -1 $-1 $293 $211 $236 $280 forward $202 $-1 #
-264 attrib_annotation-sys-attrib $-1 -1 $-1 $-1 $212 1 1 1 1 1 1 1 1 1 1 1 0 1 0 0 1 0 1 $311 #
-265 straight-curve $-1 -1 -1 $-1 1 1.5 0.1339745962155614 0.70710678118654757 0.61237243569579447 0.35355339059327373 I I #
-266 edge $312 -1 -1 $-1 $297 -4 $215 0 $249 $313 forward @7 unknown F #
-267 sweep_anno_edge_top-sweep_annotation-annotation $-1 -1 hooked $314 $315 $156 #
-268 attrib_annotation-sys-attrib $-1 -1 $-1 $-1 $215 1 1 1 1 1 1 1 1 1 1 1 0 1 0 0 1 0 1 $316 #
-269 point $-1 -1 -1 $-1 4.5355339059327378 4.5618621784789726 1.9017415491819301 #
-270 attrib_annotation-sys-attrib $-1 -1 $-1 $-1 $216 1 1 1 1 1 1 1 1 1 1 1 0 1 0 0 1 0 1 $317 #
-271 point $-1 -1 -1 $-1 3.1213203435596424 5.7866070498705611 2.6088483303684775 #
-272 tag-sys-attrib $-1 -1 $-1 $-1 $-1 1 1 1 1 1 1 1 1 1 1 1 0 1 0 0 1 0 1 origin_live $104 #
-273 tag-sys-attrib $-1 -1 $-1 $-1 $-1 1 1 1 1 1 1 1 1 1 1 1 0 1 0 0 1 0 1 origin_live $137 #
-274 tag-sys-attrib $-1 -1 $-1 $-1 $-1 1 1 1 1 1 1 1 1 1 1 1 0 1 0 0 1 0 1 origin_lost 1876218752 #
-275 tag-sys-attrib $-1 -1 $-1 $-1 $-1 1 1 1 1 1 1 1 1 1 1 1 0 1 0 0 1 0 1 origin_live $137 #
-276 tag-sys-attrib $-1 -1 $-1 $-1 $-1 1 1 1 1 1 1 1 1 1 1 1 0 1 0 0 1 0 1 origin_lost 1876218752 #
-277 tag-sys-attrib $-1 -1 $-1 $-1 $-1 1 1 1 1 1 1 1 1 1 1 1 0 1 0 0 1 0 1 origin_live $79 #
-278 attrib_annotation-sys-attrib $-1 -1 $-1 $-1 $236 1 1 1 1 1 1 1 1 1 1 1 0 1 0 0 1 0 1 $318 #
-279 coedge $319 -1 -1 $-1 $236 $300 $294 $290 reversed $183 $-1 #
-280 edge $320 -1 -1 $-1 $243 0 $321 4 $263 $322 forward @7 unknown F #
-281 tag-sys-attrib $-1 -1 $-1 $238 $137 1 1 1 1 1 1 1 1 1 1 1 0 1 0 0 1 0 1 origin_live $137 #
-282 attrib_annotation-sys-attrib $-1 -1 $323 $241 $197 1 1 1 1 1 1 1 1 1 1 1 0 1 0 0 1 0 1 $267 #
-283 attrib_annotation-sys-attrib $-1 -1 $324 $-1 $242 1 1 1 1 1 1 1 1 1 1 1 0 1 0 0 1 0 1 $309 #
-284 point $-1 -1 -1 $-1 -0.41421356237309492 2.7247448713915889 0.84108137740210887 #
-285 attrib_annotation-sys-attrib $-1 -1 $325 $-1 $243 1 1 1 1 1 1 1 1 1 1 1 0 1 0 0 1 0 1 $311 #
-286 point $-1 -1 -1 $-1 1 1.5 0.1339745962155614 #
-287 attrib_annotation-sys-attrib $-1 -1 $326 $-1 $245 1 1 1 1 1 1 1 1 1 1 1 0 1 0 0 1 0 1 $147 #
-288 vertex $327 -1 -1 $-1 $290 $328 #
-289 straight-curve $-1 -1 -1 $-1 -0.4142135623730947 4.7247448713915894 -2.6230202377356453 -5.5511151231257827e-17 -0.50000000000000011 0.8660254037844386 I I #
-290 edge $329 -1 -1 $-1 $321 4.9343245538895819e-17 $288 1.4594553124539322 $294 $330 forward @7 unknown F #
-291 tag-sys-attrib $-1 -1 $-1 $-1 $-1 1 1 1 1 1 1 1 1 1 1 1 0 1 0 0 1 0 1 origin_live $280 #
-292 tag-sys-attrib $-1 -1 $-1 $-1 $-1 1 1 1 1 1 1 1 1 1 1 1 0 1 0 0 1 0 1 origin_lost 1876218752 #
-293 coedge $-1 -1 -1 $-1 $249 $263 $250 $295 forward $202 $-1 #
-294 coedge $331 -1 -1 $-1 $251 $250 $279 $290 forward $150 $-1 #
-295 edge $332 -1 -1 $-1 $321 0 $297 5 $293 $333 forward @7 unknown F #
-296 attrib_annotation-sys-attrib $-1 -1 $-1 $-1 $253 1 1 1 1 1 1 1 1 1 1 1 0 1 0 0 1 0 1 $334 #
-297 vertex $335 -1 -1 $-1 $295 $336 #
-298 ellipse-curve $-1 -1 -1 $-1 3.8284271247461903 6.6152176197998198 -0.24056083881069523 -0.70710678118654746 -0.61237243569579447 -0.35355339059327368 0.70710678118654768 -0.053355441320847276 -1.3217992271451282 1 I I #
-299 attrib_annotation-sys-attrib $-1 -1 $337 $-1 $254 1 1 1 1 1 1 1 1 1 1 1 0 1 0 0 1 0 1 $338 #
-300 coedge $339 -1 -1 $-1 $279 $260 $254 $245 reversed $183 $-1 #
-301 attrib_annotation-sys-attrib $-1 -1 $-1 $-1 $255 1 1 1 1 1 1 1 1 1 1 1 0 1 0 0 1 0 1 $340 #
-302 straight-curve $-1 -1 -1 $-1 -0.41421356237309448 4.7247448713915894 -2.6230202377356457 0.70710678118654757 0.61237243569579447 0.35355339059327373 I I #
-303 sweep_anno_edge_top-sweep_annotation-annotation $-1 -1 hooked $341 $342 $208 #
-304 attrib_annotation-sys-attrib $-1 -1 $-1 $-1 $257 1 1 1 1 1 1 1 1 1 1 1 0 1 0 0 1 0 1 $343 #
-305 point $-1 -1 -1 $-1 3.1213203435596419 7.7866070498705611 -0.85525328476927776 #
-306 tag-sys-attrib $-1 -1 $-1 $259 $209 1 1 1 1 1 1 1 1 1 1 1 0 1 0 0 1 0 1 origin_live $209 #
-307 copy_annotation-annotation $-1 -1 hooked $260 $344 #
-308 attrib_annotation-sys-attrib $-1 -1 $-1 $-1 $260 1 1 1 1 1 1 1 1 1 1 1 0 1 0 0 1 0 1 $307 #
-309 sweep_anno_vertex_lat-sweep_annotation-annotation $-1 -1 hooked $345 $346 $210 $-1 $-1 $-1 $-1 #
-310 attrib_annotation-sys-attrib $-1 -1 $347 $-1 $263 1 1 1 1 1 1 1 1 1 1 1 0 1 0 0 1 0 1 $318 #
-311 sweep_anno_vertex_lat-sweep_annotation-annotation $-1 -1 hooked $348 $349 $212 $-1 $-1 $-1 $-1 #
-312 attrib_annotation-sys-attrib $-1 -1 $-1 $-1 $266 1 1 1 1 1 1 1 1 1 1 1 0 1 0 0 1 0 1 $350 #
-313 straight-curve $-1 -1 -1 $-1 4.5355339059327378 4.5618621784789726 1.9017415491819301 -5.5511151231257839e-17 -0.50000000000000011 0.8660254037844386 I I #
-314 tag-sys-attrib $-1 -1 $-1 $-1 $-1 1 1 1 1 1 1 1 1 1 1 1 0 1 0 0 1 0 1 origin_live $197 #
-315 tag-sys-attrib $-1 -1 $-1 $-1 $-1 1 1 1 1 1 1 1 1 1 1 1 0 1 0 0 1 0 1 origin_lost 1876218752 #
-316 sweep_anno_vertex_top-sweep_annotation-annotation $-1 -1 hooked $351 $352 $215 $-1 $-1 $-1 $-1 #
-317 sweep_anno_vertex_top-sweep_annotation-annotation $-1 -1 hooked $353 $354 $216 $-1 $-1 $-1 $-1 #
-318 copy_annotation-annotation $-1 -1 hooked $236 $355 #
-319 attrib_annotation-sys-attrib $-1 -1 $-1 $-1 $279 1 1 1 1 1 1 1 1 1 1 1 0 1 0 0 1 0 1 $356 #
-320 attrib_annotation-sys-attrib $-1 -1 $357 $-1 $280 1 1 1 1 1 1 1 1 1 1 1 0 1 0 0 1 0 1 $248 #
-321 vertex $358 -1 -1 $-1 $280 $359 #
-322 straight-curve $-1 -1 -1 $-1 1 1.5 0.1339745962155614 5.5511151231257839e-17 0.50000000000000011 -0.86602540378443871 I I #
-323 tag-sys-attrib $-1 -1 $-1 $282 $197 1 1 1 1 1 1 1 1 1 1 1 0 1 0 0 1 0 1 origin_live $197 #
-324 attrib_annotation-sys-attrib $-1 -1 $360 $283 $242 1 1 1 1 1 1 1 1 1 1 1 0 1 0 0 1 0 1 $317 #
-325 attrib_annotation-sys-attrib $-1 -1 $361 $285 $243 1 1 1 1 1 1 1 1 1 1 1 0 1 0 0 1 0 1 $316 #
-326 attrib_annotation-sys-attrib $-1 -1 $362 $287 $245 1 1 1 1 1 1 1 1 1 1 1 0 1 0 0 1 0 1 $303 #
-327 attrib_annotation-sys-attrib $-1 -1 $363 $-1 $288 1 1 1 1 1 1 1 1 1 1 1 0 1 0 0 1 0 1 $340 #
-328 point $-1 -1 -1 $-1 -0.41421356237309448 4.7247448713915894 -2.6230202377356457 #
-329 attrib_annotation-sys-attrib $-1 -1 $364 $-1 $290 1 1 1 1 1 1 1 1 1 1 1 0 1 0 0 1 0 1 $200 #
-330 ellipse-curve $-1 -1 -1 $-1 0.2928932188134527 3.5533554413208472 -2.0083277917770643 0.70710678118654746 0.61237243569579447 0.35355339059327373 0.70710678118654768 -0.053355441320847241 -1.3217992271451284 1 I I #
-331 attrib_annotation-sys-attrib $-1 -1 $365 $-1 $294 1 1 1 1 1 1 1 1 1 1 1 0 1 0 0 1 0 1 $356 #
-332 attrib_annotation-sys-attrib $-1 -1 $-1 $-1 $295 1 1 1 1 1 1 1 1 1 1 1 0 1 0 0 1 0 1 $366 #
-333 straight-curve $-1 -1 -1 $-1 1.0000000000000002 3.5 -3.3301270189221928 0.70710678118654757 0.61237243569579447 0.35355339059327373 I I #
-334 sweep_anno_edge_top-sweep_annotation-annotation $-1 -1 hooked $367 $368 $253 #
-335 attrib_annotation-sys-attrib $-1 -1 $-1 $-1 $297 1 1 1 1 1 1 1 1 1 1 1 0 1 0 0 1 0 1 $369 #
-336 point $-1 -1 -1 $-1 4.5355339059327378 6.5618621784789726 -1.5623600659558241 #
-337 tag-sys-attrib $-1 -1 $-1 $299 $254 1 1 1 1 1 1 1 1 1 1 1 0 1 0 0 1 0 1 origin_live $254 #
-338 copy_annotation-annotation $-1 -1 hooked $300 $370 #
-339 attrib_annotation-sys-attrib $-1 -1 $-1 $-1 $300 1 1 1 1 1 1 1 1 1 1 1 0 1 0 0 1 0 1 $338 #
-340 sweep_anno_vertex_lat-sweep_annotation-annotation $-1 -1 hooked $371 $372 $255 $-1 $-1 $-1 $-1 #
-341 tag-sys-attrib $-1 -1 $-1 $-1 $-1 1 1 1 1 1 1 1 1 1 1 1 0 1 0 0 1 0 1 origin_live $245 #
-342 tag-sys-attrib $-1 -1 $-1 $-1 $-1 1 1 1 1 1 1 1 1 1 1 1 0 1 0 0 1 0 1 origin_lost 1876218752 #
-343 sweep_anno_vertex_top-sweep_annotation-annotation $-1 -1 hooked $373 $374 $257 $-1 $-1 $-1 $-1 #
-344 tag-sys-attrib $-1 -1 $-1 $-1 $-1 1 1 1 1 1 1 1 1 1 1 1 0 1 0 0 1 0 1 origin_live $209 #
-345 tag-sys-attrib $-1 -1 $-1 $-1 $-1 1 1 1 1 1 1 1 1 1 1 1 0 1 0 0 1 0 1 origin_live $242 #
-346 tag-sys-attrib $-1 -1 $-1 $-1 $-1 1 1 1 1 1 1 1 1 1 1 1 0 1 0 0 1 0 1 origin_lost 1876218752 #
-347 tag-sys-attrib $-1 -1 $-1 $310 $263 1 1 1 1 1 1 1 1 1 1 1 0 1 0 0 1 0 1 origin_live $263 #
-348 tag-sys-attrib $-1 -1 $-1 $-1 $-1 1 1 1 1 1 1 1 1 1 1 1 0 1 0 0 1 0 1 origin_live $243 #
-349 tag-sys-attrib $-1 -1 $-1 $-1 $-1 1 1 1 1 1 1 1 1 1 1 1 0 1 0 0 1 0 1 origin_lost 1876218752 #
-350 sweep_anno_edge_top-sweep_annotation-annotation $-1 -1 hooked $375 $376 $266 #
-351 tag-sys-attrib $-1 -1 $-1 $-1 $-1 1 1 1 1 1 1 1 1 1 1 1 0 1 0 0 1 0 1 origin_live $243 #
-352 tag-sys-attrib $-1 -1 $-1 $-1 $-1 1 1 1 1 1 1 1 1 1 1 1 0 1 0 0 1 0 1 origin_lost 1876218752 #
-353 tag-sys-attrib $-1 -1 $-1 $-1 $-1 1 1 1 1 1 1 1 1 1 1 1 0 1 0 0 1 0 1 origin_live $242 #
-354 tag-sys-attrib $-1 -1 $-1 $-1 $-1 1 1 1 1 1 1 1 1 1 1 1 0 1 0 0 1 0 1 origin_lost 1876218752 #
-355 tag-sys-attrib $-1 -1 $-1 $-1 $-1 1 1 1 1 1 1 1 1 1 1 1 0 1 0 0 1 0 1 origin_live $263 #
-356 copy_annotation-annotation $-1 -1 hooked $279 $377 #
-357 attrib_annotation-sys-attrib $-1 -1 $378 $320 $280 1 1 1 1 1 1 1 1 1 1 1 0 1 0 0 1 0 1 $350 #
-358 attrib_annotation-sys-attrib $-1 -1 $379 $-1 $321 1 1 1 1 1 1 1 1 1 1 1 0 1 0 0 1 0 1 $366 #
-359 point $-1 -1 -1 $-1 1.0000000000000002 3.5 -3.3301270189221928 #
-360 tag-sys-attrib $-1 -1 $-1 $324 $242 1 1 1 1 1 1 1 1 1 1 1 0 1 0 0 1 0 1 origin_live $242 #
-361 tag-sys-attrib $-1 -1 $-1 $325 $243 1 1 1 1 1 1 1 1 1 1 1 0 1 0 0 1 0 1 origin_live $243 #
-362 tag-sys-attrib $-1 -1 $-1 $326 $245 1 1 1 1 1 1 1 1 1 1 1 0 1 0 0 1 0 1 origin_live $245 #
-363 attrib_annotation-sys-attrib $-1 -1 $380 $327 $288 1 1 1 1 1 1 1 1 1 1 1 0 1 0 0 1 0 1 $343 #
-364 attrib_annotation-sys-attrib $-1 -1 $381 $329 $290 1 1 1 1 1 1 1 1 1 1 1 0 1 0 0 1 0 1 $334 #
-365 tag-sys-attrib $-1 -1 $-1 $331 $294 1 1 1 1 1 1 1 1 1 1 1 0 1 0 0 1 0 1 origin_live $294 #
-366 sweep_anno_vertex_lat-sweep_annotation-annotation $-1 -1 hooked $382 $383 $295 $-1 $-1 $-1 $-1 #
-367 tag-sys-attrib $-1 -1 $-1 $-1 $-1 1 1 1 1 1 1 1 1 1 1 1 0 1 0 0 1 0 1 origin_live $290 #
-368 tag-sys-attrib $-1 -1 $-1 $-1 $-1 1 1 1 1 1 1 1 1 1 1 1 0 1 0 0 1 0 1 origin_lost 1876218752 #
-369 sweep_anno_vertex_top-sweep_annotation-annotation $-1 -1 hooked $384 $385 $297 $-1 $-1 $-1 $-1 #
-370 tag-sys-attrib $-1 -1 $-1 $-1 $-1 1 1 1 1 1 1 1 1 1 1 1 0 1 0 0 1 0 1 origin_live $254 #
-371 tag-sys-attrib $-1 -1 $-1 $-1 $-1 1 1 1 1 1 1 1 1 1 1 1 0 1 0 0 1 0 1 origin_live $288 #
-372 tag-sys-attrib $-1 -1 $-1 $-1 $-1 1 1 1 1 1 1 1 1 1 1 1 0 1 0 0 1 0 1 origin_lost 1876218752 #
-373 tag-sys-attrib $-1 -1 $-1 $-1 $-1 1 1 1 1 1 1 1 1 1 1 1 0 1 0 0 1 0 1 origin_live $288 #
-374 tag-sys-attrib $-1 -1 $-1 $-1 $-1 1 1 1 1 1 1 1 1 1 1 1 0 1 0 0 1 0 1 origin_lost 1876218752 #
-375 tag-sys-attrib $-1 -1 $-1 $-1 $-1 1 1 1 1 1 1 1 1 1 1 1 0 1 0 0 1 0 1 origin_live $280 #
-376 tag-sys-attrib $-1 -1 $-1 $-1 $-1 1 1 1 1 1 1 1 1 1 1 1 0 1 0 0 1 0 1 origin_lost 1876218752 #
-377 tag-sys-attrib $-1 -1 $-1 $-1 $-1 1 1 1 1 1 1 1 1 1 1 1 0 1 0 0 1 0 1 origin_live $294 #
-378 tag-sys-attrib $-1 -1 $-1 $357 $280 1 1 1 1 1 1 1 1 1 1 1 0 1 0 0 1 0 1 origin_live $280 #
-379 attrib_annotation-sys-attrib $-1 -1 $386 $358 $321 1 1 1 1 1 1 1 1 1 1 1 0 1 0 0 1 0 1 $369 #
-380 tag-sys-attrib $-1 -1 $-1 $363 $288 1 1 1 1 1 1 1 1 1 1 1 0 1 0 0 1 0 1 origin_live $288 #
-381 tag-sys-attrib $-1 -1 $-1 $364 $290 1 1 1 1 1 1 1 1 1 1 1 0 1 0 0 1 0 1 origin_live $290 #
-382 tag-sys-attrib $-1 -1 $-1 $-1 $-1 1 1 1 1 1 1 1 1 1 1 1 0 1 0 0 1 0 1 origin_live $321 #
-383 tag-sys-attrib $-1 -1 $-1 $-1 $-1 1 1 1 1 1 1 1 1 1 1 1 0 1 0 0 1 0 1 origin_lost 1876218752 #
-384 tag-sys-attrib $-1 -1 $-1 $-1 $-1 1 1 1 1 1 1 1 1 1 1 1 0 1 0 0 1 0 1 origin_live $321 #
-385 tag-sys-attrib $-1 -1 $-1 $-1 $-1 1 1 1 1 1 1 1 1 1 1 1 0 1 0 0 1 0 1 origin_lost 1876218752 #
-386 tag-sys-attrib $-1 -1 $-1 $379 $321 1 1 1 1 1 1 1 1 1 1 1 0 1 0 0 1 0 1 origin_live $321 #
End-of-ACIS-data 