3400 0 1 0           
15 acis_api_access 14 ACIS 34.0.1 NT 24 Fri Aug  2 15:55:19 2024 
1 9.9999999999999995e-07 1e-10 
T @77 C5XBX_B6AP4C4HB_QNC3CTY2M55CFJ735D9NTEN23CPUJA76BA_CPXP3F854QM7UPBQUJC5EBATVS 
-0 body $-1 -1 -1 $-1 0 $1 $-1 $-1 F #
-1 lump $-1 -1 -1 $-1 $-1 $2 $0 F #
-2 shell $-1 -1 -1 $-1 $-1 $-1 $3 $-1 $1 F #
-3 face $-1 -1 -1 $-1 $4 $5 $2 $-1 $6 forward single F F #
-4 face $-1 -1 -1 $-1 $7 $8 $2 $-1 $9 forward single F F #
-5 loop $-1 -1 -1 $-1 $-1 $10 $3 F unknown #
-6 cone-surface $-1 -1 -1 $-1 5.1471143170299731 1.1830127018922192 3.6339745962155616 0.43301270189221924 0.74999999999999989 0.49999999999999994 -3.4898177989417598 2.0177099126852807 -0.0042940005652637317 1 I I 0 1 4.0311288741492755 forward I I I I #
-7 face $-1 -1 -1 $-1 $11 $12 $2 $-1 $13 forward single F F #
-8 loop $-1 -1 -1 $-1 $-1 $14 $4 F unknown #
-9 plane-surface $-1 -1 -1 $-1 2.399519052838329 4.424038105676658 2.151923788646684 -0.43301270189225216 -0.74999999999998457 -0.49999999999999473 -0.25000000000000006 -0.43301270189221941 0.8660254037844386 forward_v I I I I #
-10 coedge $-1 -1 -1 $-1 $15 $16 $17 $18 forward $5 $-1 #
-11 face $-1 -1 -1 $-1 $19 $20 $2 $-1 $21 forward single F F #
-12 loop $-1 -1 -1 $-1 $-1 $22 $7 F unknown #
-13 cone-surface $-1 -1 -1 $-1 5.1471143170299731 1.1830127018922192 3.6339745962155616 0.43301270189221924 0.74999999999999989 0.49999999999999994 -4.6013502942716711 2.6603652784694343 -0.005661671153883851 1 I I 0 -1 5.3150729063673241 forward I I I I #
-14 coedge $-1 -1 -1 $-1 $23 $24 $25 $26 forward $8 $-1 #
-15 coedge $-1 -1 -1 $-1 $27 $10 $24 $28 reversed $5 $-1 #
-16 coedge $-1 -1 -1 $-1 $10 $27 $29 $30 forward $5 $-1 #
-17 coedge $-1 -1 -1 $-1 $31 $25 $10 $18 reversed $32 $-1 #
-18 edge $-1 -1 -1 $-1 $33 -1.0000000000000013 $34 -4.3227571960280314e-16 $10 $35 forward @7 unknown F #
-19 face $-1 -1 -1 $-1 $36 $37 $2 $-1 $38 forward single F T -1.4594553124539322 0 0 3.1415926536062755 #
-20 loop $-1 -1 -1 $-1 $-1 $39 $11 F unknown #
-21 plane-surface $-1 -1 -1 $-1 1.9665063509461094 3.674038105676658 1.6519237886466842 0.43301270189222607 0.74999999999999956 0.49999999999999473 0.24999999999999997 0.43301270189221941 -0.8660254037844386 forward_v I I I I #
-22 coedge $-1 -1 -1 $-1 $40 $41 $42 $43 forward $12 $-1 #
-23 coedge $-1 -1 -1 $-1 $44 $14 $41 $45 reversed $8 $-1 #
-24 coedge $-1 -1 -1 $-1 $14 $44 $15 $28 forward $8 $-1 #
-25 coedge $-1 -1 -1 $-1 $17 $42 $14 $26 reversed $32 $-1 #
-26 edge $-1 -1 -1 $-1 $34 -3.0000000000000107 $46 -2.9439407021486955e-15 $14 $47 forward @7 unknown F #
-27 coedge $-1 -1 -1 $-1 $16 $15 $48 $49 forward $5 $-1 #
-28 edge $-1 -1 -1 $-1 $50 -0.12312499516705 $34 3.0184676584227459 $24 $51 forward @7 unknown F #
-29 coedge $-1 -1 -1 $-1 $52 $39 $16 $30 reversed $20 $-1 #
-30 edge $-1 -1 -1 $-1 $53 -0.12312499516704992 $33 3.0184676584227406 $16 $54 forward @7 unknown F #
-31 coedge $-1 -1 -1 $-1 $42 $17 $39 $55 reversed $32 $-1 #
-32 loop $-1 -1 -1 $-1 $-1 $17 $56 F unknown #
-33 vertex $-1 -1 -1 $-1 $30 $57 #
-34 vertex $-1 -1 -1 $-1 $28 $58 #
-35 straight-curve $-1 -1 -1 $-1 8.702722283113836 -0.65849364905388974 4.3169872981077821 0.43301270189221902 0.74999999999999978 0.49999999999999989 0.99999999999999967 I I #
-36 face $-1 -1 -1 $-1 $59 $60 $2 $-1 $61 forward single F F #
-37 loop $-1 -1 -1 $-1 $-1 $62 $19 F unknown #
-38 spline-surface $-1 -1 -1 $-1 forward { rotsur 0 
	ellipse 2.4035042047047455 4.4309405911851698 1.1381188176296615 -0.86602540378443849 0.49999999999999989 -2.7755575615628914e-17 -0.15350420470474591 -0.26587708172407343 -1.4682458365518543 1 I I 
	4.7141016151377544 0.43301270189222008 3.1339745962155621 0.43301270189221924 0.74999999999999989 0.49999999999999994 
	none F -1.4594553124539322 F 0 F 0 F 4.7123889803846897 OPEN OPEN NON_SINGULAR NON_SINGULAR 
	0 
	0 
	0 
	0 
	0 
	0 
	} F -1.4594553124539322 F 0 F 0 F 3.1415926536062755 #
-39 coedge $-1 -1 -1 $-1 $29 $63 $31 $55 forward $20 $-1 #
-40 coedge $-1 -1 -1 $-1 $64 $22 $63 $65 reversed $12 $-1 #
-41 coedge $-1 -1 -1 $-1 $22 $64 $23 $45 forward $12 $-1 #
-42 coedge $-1 -1 -1 $-1 $25 $31 $22 $43 reversed $32 $-1 #
-43 edge $-1 -1 -1 $-1 $46 -0.99999999999999922 $66 2.300156476092162e-16 $22 $67 forward @7 unknown F #
-44 coedge $-1 -1 -1 $-1 $24 $23 $68 $69 forward $8 $-1 #
-45 edge $-1 -1 -1 $-1 $70 -0.71760000024191295 $46 2.4239926533478799 $41 $71 forward @7 unknown F #
-46 vertex $-1 -1 -1 $-1 $45 $72 #
-47 straight-curve $-1 -1 -1 $-1 7.952722283113836 -1.9575317547305477 6.9150635094610982 -0.25000000000000006 -0.4330127018922193 0.86602540378443882 1.0000000000000002 I I #
-48 coedge $-1 -1 -1 $-1 $68 $73 $27 $49 reversed $74 $-1 #
-49 edge $-1 -1 -1 $-1 $50 -0 $53 1 $27 $75 forward @7 unknown F #
-50 vertex $-1 -1 -1 $-1 $69 $76 #
-51 ellipse-curve $-1 -1 -1 $-1 5.3636206679760825 1.5580127018922192 3.8839745962155616 0.43301270189221924 0.74999999999999989 0.49999999999999994 -3.4898177989417589 2.0177099126852802 -0.0042940005652637309 1 F -0.12312499516705 F 3.0184676584227459 #
-52 coedge $-1 -1 -1 $-1 $63 $29 $73 $77 forward $20 $-1 #
-53 vertex $-1 -1 -1 $-1 $77 $78 #
-54 ellipse-curve $-1 -1 -1 $-1 4.9306079660838638 0.80801270189221919 3.3839745962155616 0.43301270189221924 0.74999999999999989 0.49999999999999994 -3.4898177989417598 2.0177099126852807 -0.0042940005652637317 1 F -0.12312499516704992 F 3.0184676584227406 #
-55 edge $-1 -1 -1 $-1 $66 -2.9999999999999978 $33 -1.0562488524191297e-14 $39 $79 forward @7 unknown F #
-56 face $-1 -1 -1 $-1 $80 $81 $2 $-1 $82 reversed single F F #
-57 point $-1 -1 -1 $-1 8.2697095812216137 -1.4084936490538951 3.8169872981077901 #
-58 point $-1 -1 -1 $-1 8.7027222831138396 -0.65849364905388585 4.3169872981077724 #
-59 face $-1 -1 -1 $-1 $83 $84 $2 $-1 $85 forward single F T -1.4594553124539327 0 0 3.1415926536025296 #
-60 loop $-1 -1 -1 $-1 $-1 $86 $36 F unknown #
-61 plane-surface $-1 -1 -1 $-1 2.6160254037844384 4.799038105676658 2.401923788646684 0.4330127018921251 0.75000000000005163 0.50000000000000433 0.25000000000000006 0.43301270189221935 -0.86602540378443871 forward_v I I I I #
-62 coedge $-1 -1 -1 $-1 $87 $88 $89 $90 forward $37 $91 #
-63 coedge $-1 -1 -1 $-1 $39 $52 $40 $65 forward $20 $-1 #
-64 coedge $-1 -1 -1 $-1 $41 $40 $92 $93 forward $12 $-1 #
-65 edge $-1 -1 -1 $-1 $94 -0.71760000024191295 $66 2.4239926533478799 $63 $95 forward @7 unknown F #
-66 vertex $-1 -1 -1 $-1 $65 $96 #
-67 straight-curve $-1 -1 -1 $-1 7.5197095812216173 -2.7075317547305473 6.4150635094610982 -0.43301270189221885 -0.75 -0.5 0.99999999999999978 I I #
-68 coedge $-1 -1 -1 $-1 $92 $48 $44 $69 reversed $74 $-1 #
-69 edge $-1 -1 -1 $-1 $70 0 $50 3 $44 $97 forward @7 unknown F #
-70 vertex $-1 -1 -1 $-1 $93 $98 #
-71 ellipse-curve $-1 -1 -1 $-1 5.3636206679760825 1.5580127018922192 3.8839745962155616 0.43301270189221924 0.74999999999999989 0.49999999999999994 -4.6013502942716702 2.6603652784694338 -0.0056616711538838502 1 F -0.71760000024191295 F 2.4239926533478799 #
-72 point $-1 -1 -1 $-1 7.9527222831138378 -1.9575317547305473 6.9150635094610955 #
-73 coedge $-1 -1 -1 $-1 $48 $92 $52 $77 reversed $74 $-1 #
-74 loop $-1 -1 -1 $-1 $-1 $73 $80 F unknown #
-75 straight-curve $-1 -1 -1 $-1 2.024519052838329 3.774519052838329 3.450961894323342 -0.43301270189221941 -0.75 -0.5 1 I I #
-76 point $-1 -1 -1 $-1 2.024519052838329 3.774519052838329 3.450961894323342 #
-77 edge $-1 -1 -1 $-1 $53 0 $94 2.9999999999999996 $52 $99 forward @7 unknown F #
-78 point $-1 -1 -1 $-1 1.5915063509461096 3.024519052838329 2.950961894323342 #
-79 straight-curve $-1 -1 -1 $-1 8.269709581221619 -1.4084936490538897 3.8169872981077821 0.25 0.4330127018922193 -0.86602540378443882 1 I I #
-80 face $-1 -1 -1 $-1 $-1 $100 $2 $-1 $101 forward single F F #
-81 loop $-1 -1 -1 $-1 $32 $89 $56 F unknown #
-82 plane-surface $-1 -1 -1 $-1 8.4282032302755088 -1.1339745962155607 2.2679491924311237 -0.86602540378443837 0.49999999999999972 -6.9388939039072284e-17 -0.4330127018922193 -0.74999999999999989 0.50000000000000022 forward_v I I I I #
-83 face $-1 -1 -1 $-1 $56 $102 $2 $-1 $103 forward single F F #
-84 loop $-1 -1 -1 $-1 $-1 $104 $59 F unknown #
-85 spline-surface $-1 -1 -1 $-1 forward { rotsur 1 
	ellipse 1.9625211990796929 3.6671356201681462 2.6657287596637076 -0.86602540378443849 0.49999999999999989 -2.7755575615628914e-17 0.15350420470474546 0.26587708172407298 1.468245836551854 1 I I 
	4.7141016151377544 0.43301270189222008 3.1339745962155621 0.43301270189221924 0.74999999999999989 0.49999999999999994 
	none F -1.4594553124539327 F 0 F 0 F 4.7123889803846897 OPEN OPEN NON_SINGULAR NON_SINGULAR 
	0 
	0 
	0 
	0 
	0 
	0 
	} F -1.4594553124539327 F 0 F 0 F 3.1415926536025296 #
-86 coedge $-1 -1 -1 $-1 $105 $106 $107 $108 forward $60 $-1 #
-87 coedge $-1 -1 -1 $-1 $109 $62 $106 $110 reversed $37 $111 #
-88 coedge $-1 -1 -1 $-1 $62 $109 $112 $113 forward $37 $114 #
-89 coedge $-1 -1 -1 $-1 $115 $107 $62 $90 reversed $81 $-1 #
-90 edge $-1 -1 -1 $-1 $116 -6.4146219200564589e-16 $117 1.4594553124539322 $62 $118 forward @7 unknown F #
-91 pcurve $-1 -1 -1 $-1 0 forward { exppc 2 nubs 1 open 2 
	-6.4146219200564589e-16 1 1.4594553124539322 1 
	0 3.1415926535897931 
	-1.4594553124539322 3.1415926535897931 
	0.001 
	1.6482371023585074e-11 
	spline forward { ref 0 } I I I I 
	} 0 0 #
-92 coedge $-1 -1 -1 $-1 $73 $68 $64 $93 reversed $74 $-1 #
-93 edge $-1 -1 -1 $-1 $94 0 $70 1.0000000000000002 $64 $119 forward @7 unknown F #
-94 vertex $-1 -1 -1 $-1 $77 $120 #
-95 ellipse-curve $-1 -1 -1 $-1 4.9306079660838638 0.80801270189221952 3.3839745962155616 0.43301270189221924 0.74999999999999989 0.49999999999999994 -4.6013502942716711 2.6603652784694343 -0.005661671153883851 1 F -0.71760000024191295 F 2.4239926533478799 #
-96 point $-1 -1 -1 $-1 7.519709581221619 -2.7075317547305469 6.4150635094610955 #
-97 straight-curve $-1 -1 -1 $-1 2.774519052838329 5.073557158514987 0.85288568297002643 -0.25000000000000006 -0.43301270189221941 0.8660254037844386 1 I I #
-98 point $-1 -1 -1 $-1 2.774519052838329 5.073557158514987 0.85288568297002643 #
-99 straight-curve $-1 -1 -1 $-1 1.5915063509461096 3.024519052838329 2.950961894323342 0.24999999999999997 0.43301270189221941 -0.8660254037844386 1 I I #
-100 loop $-1 -1 -1 $-1 $74 $121 $80 F unknown #
-101 plane-surface $-1 -1 -1 $-1 1 2 4 0.86602540378443849 -0.49999999999999989 2.7755575615628914e-17 3.2049378106392736e-17 0 -1 forward_v I I I I #
-102 loop $-1 -1 -1 $-1 $-1 $122 $83 F unknown #
-103 plane-surface $-1 -1 -1 $-1 1.75 3.299038105676658 1.4019237886466844 -0.43301270189216906 -0.75000000000002709 -0.500000000000003 -0.25000000000000006 -0.43301270189221935 0.86602540378443871 forward_v I I I I #
-104 coedge $-1 -1 -1 $-1 $123 $124 $125 $126 forward $84 $127 #
-105 coedge $-1 -1 -1 $-1 $128 $86 $124 $129 reversed $60 $-1 #
-106 coedge $-1 -1 -1 $-1 $86 $128 $87 $110 forward $60 $-1 #
-107 coedge $-1 -1 -1 $-1 $89 $125 $86 $108 reversed $81 $-1 #
-108 edge $-1 -1 -1 $-1 $117 1.4422220147876728e-15 $130 4.0000000000000009 $86 $131 forward @7 unknown F #
-109 coedge $-1 -1 -1 $-1 $88 $87 $132 $133 reversed $37 $134 #
-110 edge $-1 -1 -1 $-1 $135 -0.7841681640177367 $117 2.3574244895720557 $106 $136 forward @7 unknown F #
-111 pcurve $-1 -1 -1 $-1 0 forward { exppc 3 nubs 1 open 2 
	-2.3574244895720557 1 0.7841681640177367 1 
	-1.4594553124539322 3.1415926535897922 
	-1.4594553124539322 3.9621917855260216e-16 
	0 
	-1 
	spline forward { ref 0 } I I I I 
	} 0 0 #
-112 coedge $-1 -1 -1 $-1 $137 $122 $88 $113 reversed $102 $-1 #
-113 edge $-1 -1 -1 $-1 $138 -0.7841681640177367 $116 2.3574244895720566 $88 $139 forward @7 unknown F #
-114 pcurve $-1 -1 -1 $-1 0 forward { exppc 4 nubs 1 open 2 
	-0.7841681640177367 1 2.3574244895720566 1 
	0 1.511983158142291e-16 
	0 3.1415926535897931 
	0 
	-1 
	spline forward { ref 0 } I I I I 
	} 0 0 #
-115 coedge $-1 -1 -1 $-1 $125 $89 $122 $140 reversed $81 $-1 #
-116 vertex $-1 -1 -1 $-1 $113 $141 #
-117 vertex $-1 -1 -1 $-1 $110 $142 #
-118 ellipse-curve $-1 -1 -1 $-1 7.8907244293552008 -2.0649151874007297 6.1298303748014629 -0.86602540378443837 0.49999999999999972 -6.9388939039072284e-17 -0.71252119907969302 -1.2341229182759272 0.46824583655185403 1 I I #
-119 straight-curve $-1 -1 -1 $-1 2.3415063509461094 4.323557158514987 0.35288568297002643 0.43301270189221963 0.75 0.5 1 I I #
-120 point $-1 -1 -1 $-1 2.3415063509461094 4.323557158514987 0.35288568297002643 #
-121 coedge $-1 -1 -1 $-1 $132 $143 $137 $144 forward $100 $-1 #
-122 coedge $-1 -1 -1 $-1 $112 $145 $115 $140 forward $102 $-1 #
-123 coedge $-1 -1 -1 $-1 $146 $104 $145 $147 reversed $84 $148 #
-124 coedge $-1 -1 -1 $-1 $104 $146 $105 $129 forward $84 $149 #
-125 coedge $-1 -1 -1 $-1 $107 $115 $104 $126 reversed $81 $-1 #
-126 edge $-1 -1 -1 $-1 $130 3.9474596431116704e-16 $150 1.4594553124539322 $104 $151 forward @7 unknown F #
-127 pcurve $-1 -1 -1 $-1 0 forward { exppc 5 nubs 1 open 2 
	3.9474596431116704e-16 1 1.4594553124539322 1 
	0 3.1415926535897931 
	-1.459455312453932 3.1415926535897927 
	0.001 
	1.2736478538499796e-11 
	spline forward { ref 1 } I I I I 
	} 0 0 #
-128 coedge $-1 -1 -1 $-1 $106 $105 $152 $153 reversed $60 $-1 #
-129 edge $-1 -1 -1 $-1 $154 0.0012299993797115906 $130 3.1428226529695049 $124 $155 forward @7 unknown F #
-130 vertex $-1 -1 -1 $-1 $129 $156 #
-131 straight-curve $-1 -1 -1 $-1 8.0442286340599463 -1.7990381056766576 7.5980762113533178 0.25000000000000017 0.4330127018922193 -0.86602540378443882 1.0000000000000002 I I #
-132 coedge $-1 -1 -1 $-1 $152 $121 $109 $133 forward $100 $-1 #
-133 edge $-1 -1 -1 $-1 $138 2.4671622769447916e-17 $135 1.4594553124539322 $109 $157 forward @7 unknown F #
-134 pcurve $-1 -1 -1 $-1 0 forward { exppc 6 nubs 1 open 2 
	-1.4594553124539322 1 -2.4671622769447916e-17 1 
	-1.4594553124539322 0 
	0 0 
	0 
	-1 
	spline forward { ref 0 } I I I I 
	} 0 0 #
-135 vertex $-1 -1 -1 $-1 $133 $158 #
-136 ellipse-curve $-1 -1 -1 $-1 5.5801270189221928 1.9330127018922194 4.1339745962155616 0.43301270189221924 0.74999999999999989 0.49999999999999994 -4.8972362983716407 2.8314378552894568 -0.0060257402090775547 1 F -0.7841681640177367 F 2.3574244895720557 #
-137 coedge $-1 -1 -1 $-1 $145 $112 $121 $144 reversed $102 $-1 #
-138 vertex $-1 -1 -1 $-1 $144 $159 #
-139 ellipse-curve $-1 -1 -1 $-1 4.7141016151377544 0.43301270189221941 3.1339745962155616 0.43301270189221924 0.74999999999999989 0.49999999999999994 -4.8972362983716407 2.8314378552894568 -0.0060257402090775547 1 F -0.7841681640177367 F 2.3574244895720566 #
-140 edge $-1 -1 -1 $-1 $150 -9.614813431917824e-17 $116 3.9999999999999991 $122 $160 forward @7 unknown F #
-141 point $-1 -1 -1 $-1 7.1782032302755088 -3.2990381056766571 6.598076211353316 #
-142 point $-1 -1 -1 $-1 8.0442286340599463 -1.7990381056766578 7.598076211353316 #
-143 coedge $-1 -1 -1 $-1 $121 $152 $146 $161 forward $100 $-1 #
-144 edge $-1 -1 -1 $-1 $162 0 $138 4 $137 $163 forward @7 unknown F #
-145 coedge $-1 -1 -1 $-1 $122 $137 $123 $147 forward $102 $-1 #
-146 coedge $-1 -1 -1 $-1 $124 $123 $143 $161 reversed $84 $164 #
-147 edge $-1 -1 -1 $-1 $162 0.0012299993797115871 $150 3.1428226529695049 $145 $165 forward @7 unknown F #
-148 pcurve $-1 -1 -1 $-1 0 forward { exppc 7 nubs 1 open 2 
	-3.1428226529695049 1 -0.0012299993797115871 1 
	-1.4594553124539327 3.1415926535897931 
	-1.4594553124539327 4.2294786690702493e-16 
	0 
	-1 
	spline forward { ref 1 } I I I I 
	} 0 0 #
-149 pcurve $-1 -1 -1 $-1 0 forward { exppc 8 nubs 1 open 2 
	0.0012299993797115906 1 3.1428226529695049 1 
	0 0 
	0 3.1415926535897931 
	0 
	-1 
	spline forward { ref 1 } I I I I 
	} 0 0 #
-150 vertex $-1 -1 -1 $-1 $147 $166 #
-151 ellipse-curve $-1 -1 -1 $-1 8.3317074349802542 -1.3011102163837069 4.6022204327674165 -0.86602540378443837 0.49999999999999972 -6.9388939039072284e-17 0.71252119907969291 1.2341229182759266 -0.46824583655185448 1 I I #
-152 coedge $-1 -1 -1 $-1 $143 $132 $128 $153 forward $100 $-1 #
-153 edge $-1 -1 -1 $-1 $135 -4.8074067159589103e-16 $154 4 $128 $167 forward @7 unknown F #
-154 vertex $-1 -1 -1 $-1 $153 $168 #
-155 ellipse-curve $-1 -1 -1 $-1 5.5801270189221928 1.9330127018922192 4.1339745962155616 0.43301270189221924 0.74999999999999989 0.49999999999999994 -3.462868995651494 2.0021289079834697 -0.0042608417635071841 1 F 0.0012299993797115906 F 3.1428226529695049 #
-156 point $-1 -1 -1 $-1 9.0442286340599463 -0.066987298107780813 4.1339745962155616 #
-157 ellipse-curve $-1 -1 -1 $-1 2.4035042047047455 4.4309405911851698 1.1381188176296615 0.86602540378443849 -0.49999999999999989 2.7755575615628914e-17 -0.15350420470474591 -0.26587708172407343 -1.4682458365518543 1 I I #
-158 point $-1 -1 -1 $-1 3.1160254037844384 5.6650635094610964 0.66987298107780668 #
-159 point $-1 -1 -1 $-1 2.25 4.1650635094610964 -0.33012701892219276 #
-160 straight-curve $-1 -1 -1 $-1 8.1782032302755088 -1.5669872981077795 3.1339745962155625 -0.25000000000000017 -0.4330127018922193 0.86602540378443882 1.0000000000000002 I I #
-161 edge $-1 -1 -1 $-1 $154 -2.4671622769447928e-17 $162 1.4594553124539327 $146 $169 forward @7 unknown F #
-162 vertex $-1 -1 -1 $-1 $144 $170 #
-163 straight-curve $-1 -1 -1 $-1 1.25 2.4330127018922192 3.1339745962155616 0.25000000000000006 0.43301270189221935 -0.86602540378443871 1 I I #
-164 pcurve $-1 -1 -1 $-1 0 forward { exppc 9 nubs 1 open 2 
	-1.4594553124539327 1 2.4671622769447928e-17 1 
	-1.4594553124539322 0 
	0 0 
	0 
	-1 
	spline forward { ref 1 } I I I I 
	} 0 0 #
-165 ellipse-curve $-1 -1 -1 $-1 4.7141016151377544 0.43301270189221958 3.1339745962155616 0.43301270189221924 0.74999999999999989 0.49999999999999994 -3.4628689956514935 2.0021289079834692 -0.0042608417635071833 1 F 0.0012299993797115871 F 3.1428226529695049 #
-166 point $-1 -1 -1 $-1 8.1782032302755088 -1.5669872981077801 3.1339745962155621 #
-167 straight-curve $-1 -1 -1 $-1 3.1160254037844384 5.6650635094610964 0.66987298107780724 -0.25000000000000006 -0.43301270189221935 0.86602540378443871 1 I I #
-168 point $-1 -1 -1 $-1 2.1160254037844384 3.9330127018922192 4.1339745962155616 #
-169 ellipse-curve $-1 -1 -1 $-1 1.9625211990796929 3.6671356201681462 2.6657287596637076 0.86602540378443849 -0.49999999999999989 2.7755575615628914e-17 0.15350420470474546 0.26587708172407298 1.468245836551854 1 I I #
-170 point $-1 -1 -1 $-1 1.25 2.4330127018922192 3.1339745962155616 #
End-of-ACIS-data 