3400 0 1 0           
15 acis_api_access 14 ACIS 34.0.1 NT 24 Fri Aug  2 15:54:39 2024 
1 9.9999999999999995e-07 1e-10 
T @77 SBTARKMMJ7X3U55QQA49TK4N42NMJAQ2DCNCWV67Y8TVECSVP8KCP46V69PVMA59K8MUP66C7AMVM 
-0 body $-1 -1 -1 $-1 0 $1 $-1 $-1 F #
-1 lump $-1 -1 -1 $-1 $-1 $2 $0 F #
-2 shell $-1 -1 -1 $-1 $-1 $-1 $3 $-1 $1 F #
-3 face $-1 -1 -1 $-1 $4 $5 $2 $-1 $6 forward single F T 0 3.1415926535897931 0 3.141592653589794 #
-4 face $-1 -1 -1 $-1 $7 $8 $2 $-1 $9 forward single F T 5.5511151231257852e-17 3.1415926237874712 0 3.141592653589794 #
-5 loop $-1 -1 -1 $-1 $-1 $10 $3 F unknown #
-6 spline-surface $-1 -1 -1 $-1 forward { rotsur 0 
	ellipse 1.9330127018922192 3.6160254037844384 2.7679491924311228 0.86602540378443849 -0.49999999999999989 2.7755575615628914e-17 0.21650635094610982 0.375 0.25 1 I I 
	4.7141016151377544 0.43301270189222008 3.1339745962155621 0.43301270189221924 0.74999999999999989 0.49999999999999994 
	none F 0 F 3.1415926535897931 F 0 F 3.141592653589794 OPEN OPEN NON_SINGULAR NON_SINGULAR 
	0 
	0 
	0 
	0 
	0 
	0 
	} I I I I #
-7 face $-1 -1 -1 $-1 $11 $12 $2 $-1 $13 forward single F T 0 3.1415926535897936 0 3.1415926536237211 #
-8 loop $-1 -1 -1 $-1 $-1 $14 $4 F unknown #
-9 spline-surface $-1 -1 -1 $-1 forward { rotsur 1 
	ellipse 1.933012700029574 3.6160254005582422 2.7679491988835148 0.86602540378443849 -0.49999999999999989 2.7755575615628914e-17 -0.21650634908346444 -0.3749999967738038 -0.25000000645239195 1 I I 
	4.7141016151377544 0.43301270189222008 3.1339745962155621 0.43301270189221924 0.74999999999999989 0.49999999999999994 
	none F 5.5511151231257852e-17 F 3.1415926237874712 F 0 F 3.141592653589794 OPEN OPEN NON_SINGULAR NON_SINGULAR 
	0 
	0 
	0 
	0 
	0 
	0 
	} I I I I #
-10 coedge $-1 -1 -1 $-1 $15 $16 $17 $18 forward $5 $19 #
-11 face $-1 -1 -1 $-1 $20 $21 $2 $-1 $22 forward single F T 0 3.1415926535897936 0 3.1415926536142411 #
-12 loop $-1 -1 -1 $-1 $-1 $23 $7 F unknown #
-13 spline-surface $-1 -1 -1 $-1 forward { rotsur 2 
	ellipse 2.4330127018922192 4.4820508075688767 1.0358983848622456 0.86602540378443849 -0.49999999999999989 2.7755575615628914e-17 0.21650635094610982 0.375 0.25 1 I I 
	4.7141016151377544 0.43301270189222008 3.1339745962155621 0.43301270189221924 0.74999999999999989 0.49999999999999994 
	none F 0 F 3.1415926535897936 F 0 F 4.7123889803846897 OPEN OPEN NON_SINGULAR NON_SINGULAR 
	0 
	0 
	0 
	0 
	0 
	0 
	} F 0 F 3.1415926535897936 F 0 F 3.1415926536237211 #
-14 coedge $-1 -1 -1 $-1 $24 $25 $26 $27 forward $8 $28 #
-15 coedge $-1 -1 -1 $-1 $29 $10 $25 $30 reversed $5 $31 #
-16 coedge $-1 -1 -1 $-1 $10 $29 $24 $32 forward $5 $33 #
-17 coedge $-1 -1 -1 $-1 $26 $26 $10 $18 reversed $34 $-1 #
-18 edge $-1 -1 -1 $-1 $35 -3.1415926535897842 $36 -9.769962616701387e-15 $10 $37 forward @7 unknown F #
-19 pcurve $-1 -1 -1 $-1 0 forward { exppc 3 nubs 1 open 2 
	-3.1415926535897842 1 -9.769962616701387e-15 1 
	3.1415926535897931 3.141592653589794 
	2.0131954142222815e-15 3.141592653589794 
	0 
	-1 
	spline forward { ref 0 } I I I I 
	} 0 0 #
-20 face $-1 -1 -1 $-1 $38 $39 $2 $-1 $40 forward single F T -1.4594553124539322 0 0 3.1415926536062755 #
-21 loop $-1 -1 -1 $-1 $-1 $41 $11 F unknown #
-22 spline-surface $-1 -1 -1 $-1 forward { rotsur 4 
	ellipse 2.4330127018922192 4.4820508075688767 1.0358983848622456 0.86602540378443849 -0.49999999999999989 2.7755575615628914e-17 -0.21650635094610982 -0.375 -0.25 1 I I 
	4.7141016151377544 0.43301270189222008 3.1339745962155621 0.43301270189221924 0.74999999999999989 0.49999999999999994 
	none F 0 F 3.1415926535897936 F 0 F 4.7123889803846897 OPEN OPEN NON_SINGULAR NON_SINGULAR 
	0 
	0 
	0 
	0 
	0 
	0 
	} F 0 F 3.1415926535897936 F 0 F 3.1415926536142411 #
-23 coedge $-1 -1 -1 $-1 $42 $43 $44 $45 forward $12 $46 #
-24 coedge $-1 -1 -1 $-1 $47 $14 $16 $32 reversed $8 $48 #
-25 coedge $-1 -1 -1 $-1 $14 $47 $15 $30 forward $8 $49 #
-26 coedge $-1 -1 -1 $-1 $17 $17 $14 $27 reversed $34 $-1 #
-27 edge $-1 -1 -1 $-1 $36 -3.1415926237874778 $35 6.106226635438372e-15 $14 $50 forward @7 unknown F #
-28 pcurve $-1 -1 -1 $-1 0 forward { exppc 5 nubs 1 open 2 
	-3.1415926237874778 1 6.106226635438372e-15 1 
	3.1415926237874712 3.141592653589794 
	1.0736149435287278e-16 3.141592653589794 
	0 
	-1 
	spline forward { ref 1 } I I I I 
	} 0 0 #
-29 coedge $-1 -1 -1 $-1 $16 $15 $51 $52 forward $5 $53 #
-30 edge $54 -1 -1 $-1 $55 -0.24374866374715259 $36 2.8978439898426416 $25 $56 forward @7 unknown F #
-31 pcurve $-1 -1 -1 $-1 0 forward { exppc 6 nubs 1 open 2 
	-2.8978439898426416 1 0.24374866374715259 1 
	0 3.1415926535897931 
	0 2.4662954668288383e-16 
	0 
	-1 
	spline forward { ref 0 } I I I I 
	} 0 0 #
-32 edge $57 -1 -1 $-1 $58 -0.24374866374715243 $35 2.8978439898426416 $16 $59 forward @7 unknown F #
-33 pcurve $-1 -1 -1 $-1 0 forward { exppc 7 nubs 1 open 2 
	-0.24374866374715243 1 2.8978439898426416 1 
	3.1415926535897931 9.2043399886820481e-16 
	3.1415926535897931 3.141592653589794 
	0 
	-1 
	spline forward { ref 0 } I I I I 
	} 0 0 #
-34 loop $-1 -1 -1 $-1 $-1 $17 $60 F unknown #
-35 vertex $-1 -1 -1 $-1 $32 $61 #
-36 vertex $-1 -1 -1 $-1 $30 $62 #
-37 ellipse-curve $-1 -1 -1 $-1 8.3612159321677275 -1.2499999999999991 4.5000000000000018 0.86602540378443837 -0.49999999999999972 6.9388939039072284e-17 0.21650635094610943 0.375 0.25 1 I I #
-38 face $-1 -1 -1 $-1 $63 $64 $2 $-1 $65 forward single F F #
-39 loop $-1 -1 -1 $-1 $-1 $66 $20 F unknown #
-40 spline-surface $-1 -1 -1 $-1 forward { rotsur 8 
	ellipse 2.4035042047047455 4.4309405911851698 1.1381188176296615 -0.86602540378443849 0.49999999999999989 -2.7755575615628914e-17 -0.15350420470474591 -0.26587708172407343 -1.4682458365518543 1 I I 
	4.7141016151377544 0.43301270189222008 3.1339745962155621 0.43301270189221924 0.74999999999999989 0.49999999999999994 
	none F -1.4594553124539322 F 0 F 0 F 4.7123889803846897 OPEN OPEN NON_SINGULAR NON_SINGULAR 
	0 
	0 
	0 
	0 
	0 
	0 
	} F -1.4594553124539322 F 0 F 0 F 3.1415926536062755 #
-41 coedge $-1 -1 -1 $-1 $67 $68 $69 $70 forward $21 $71 #
-42 coedge $-1 -1 -1 $-1 $72 $23 $68 $73 reversed $12 $74 #
-43 coedge $-1 -1 -1 $-1 $23 $72 $67 $75 forward $12 $76 #
-44 coedge $-1 -1 -1 $-1 $69 $69 $23 $45 reversed $77 $-1 #
-45 edge $-1 -1 -1 $-1 $78 -3.1415926535897958 $79 -5.273559366969503e-15 $23 $80 forward @7 unknown F #
-46 pcurve $-1 -1 -1 $-1 0 forward { exppc 9 nubs 1 open 2 
	-3.1415926535897958 1 -5.273559366969503e-15 1 
	3.1415926535897936 3.1415926535897931 
	5.3530726657002422e-15 3.1415926535897931 
	0.001 
	3.392774949877542e-11 
	spline forward { ref 2 } I I I I 
	} 0 0 #
-47 coedge $-1 -1 -1 $-1 $25 $24 $81 $82 forward $8 $83 #
-48 pcurve $-1 -1 -1 $-1 0 forward { exppc 10 nubs 1 open 2 
	-2.8978439898426416 1 0.24374866374715243 1 
	5.5511151231257852e-17 3.141592653589794 
	5.5511151231257852e-17 8.2130772199685618e-16 
	0 
	-1 
	spline forward { ref 1 } I I I I 
	} 0 0 #
-49 pcurve $-1 -1 -1 $-1 0 forward { exppc 11 nubs 1 open 2 
	-0.24374866374715259 1 2.8978439898426416 1 
	3.1415926237874712 0 
	3.1415926237874712 3.141592653589794 
	0 
	-1 
	spline forward { ref 1 } I I I I 
	} 0 0 #
-50 ellipse-curve $-1 -1 -1 $-1 8.3612159340303727 -1.2499999967738034 4.4999999935476085 0.86602540378443837 -0.49999999999999972 6.9388939039072284e-17 -0.21650635280875455 -0.37500000322619575 -0.24999999354760777 1 I I #
-51 coedge $-1 -1 -1 $-1 $81 $81 $29 $52 reversed $84 $-1 #
-52 edge $-1 -1 -1 $-1 $55 0 $58 3.1415926535897931 $29 $85 forward @7 unknown F #
-53 pcurve $-1 -1 -1 $-1 0 forward { exppc 12 nubs 1 open 2 
	0 1 3.1415926535897931 1 
	0 0 
	3.1415926535897931 0 
	0 
	-1 
	spline forward { ref 0 } I I I I 
	} 0 0 #
-54 integer_attrib-name_attrib-gen-attrib $-1 -1 $-1 $-1 $30 2 3 2 1 1 1 1 1 1 1 1 1 1 1 0 1 1 1 @12 make_tangent 1 #
-55 vertex $-1 -1 -1 $-1 $82 $86 #
-56 ellipse-curve $-1 -1 -1 $-1 5.3636206679760825 1.5580127018922187 3.8839745962155612 0.43301270189221924 0.74999999999999989 0.49999999999999994 -3.5694436591869132 2.0637472409295969 -0.004391975161245786 1 F -0.24374866374715259 F 2.8978439898426416 #
-57 integer_attrib-name_attrib-gen-attrib $-1 -1 $-1 $-1 $32 2 3 2 1 1 1 1 1 1 1 1 1 1 1 0 1 1 1 @12 make_tangent 1 #
-58 vertex $-1 -1 -1 $-1 $82 $87 #
-59 ellipse-curve $-1 -1 -1 $-1 4.9306079660838638 0.80801270189221941 3.3839745962155616 0.43301270189221924 0.74999999999999989 0.49999999999999994 -3.5694436591869132 2.0637472409295969 -0.004391975161245786 1 F -0.24374866374715243 F 2.8978439898426416 #
-60 face $-1 -1 -1 $-1 $88 $89 $2 $-1 $90 reversed single F F #
-61 point $-1 -1 -1 $-1 8.144709581221619 -1.6249999999999987 4.2499999999999973 #
-62 point $-1 -1 -1 $-1 8.5777222831138378 -0.87499999999999944 4.7499999999999964 #
-63 face $-1 -1 -1 $-1 $91 $92 $2 $-1 $93 forward single F T -1.4594553124539327 0 0 3.1415926536025296 #
-64 loop $-1 -1 -1 $-1 $-1 $94 $38 F unknown #
-65 plane-surface $-1 -1 -1 $-1 2.6160254037844384 4.799038105676658 2.401923788646684 0.4330127018921251 0.75000000000005163 0.50000000000000433 0.25000000000000006 0.43301270189221935 -0.86602540378443871 forward_v I I I I #
-66 coedge $-1 -1 -1 $-1 $95 $96 $97 $98 forward $39 $99 #
-67 coedge $-1 -1 -1 $-1 $100 $41 $43 $75 reversed $21 $101 #
-68 coedge $-1 -1 -1 $-1 $41 $100 $42 $73 forward $21 $102 #
-69 coedge $-1 -1 -1 $-1 $44 $44 $41 $70 reversed $77 $-1 #
-70 edge $-1 -1 -1 $-1 $79 -3.1415926535897984 $78 -2.2759572004815709e-15 $41 $103 forward @7 unknown F #
-71 pcurve $-1 -1 -1 $-1 0 forward { exppc 13 nubs 1 open 2 
	-3.1415926535897984 1 -2.2759572004815709e-15 1 
	3.1415926535897936 3.1415926535897931 
	0 3.1415926535897931 
	0.001 
	2.4447999180728668e-11 
	spline forward { ref 4 } I I I I 
	} 0 0 #
-72 coedge $-1 -1 -1 $-1 $43 $42 $104 $105 forward $12 $106 #
-73 edge $107 -1 -1 $-1 $108 -0.64227110941357268 $79 2.4993215441762207 $68 $109 forward @7 tangent F #
-74 pcurve $-1 -1 -1 $-1 0 forward { exppc 14 nubs 1 open 2 
	-2.4993215441762207 1 0.64227110941357268 1 
	0 3.1415926535897931 
	0 0 
	0 
	-1 
	spline forward { ref 2 } I I I I 
	} 0 0 #
-75 edge $110 -1 -1 $-1 $111 -0.64227110941357268 $78 2.4993215441762198 $43 $112 forward @7 tangent F #
-76 pcurve $-1 -1 -1 $-1 0 forward { exppc 15 nubs 1 open 2 
	-0.64227110941357268 1 2.4993215441762198 1 
	3.1415926535897936 3.0681133295606791e-16 
	3.1415926535897936 3.1415926535897927 
	0 
	-1 
	spline forward { ref 2 } I I I I 
	} 0 0 #
-77 loop $-1 -1 -1 $-1 $34 $44 $60 F unknown #
-78 vertex $-1 -1 -1 $-1 $75 $113 #
-79 vertex $-1 -1 -1 $-1 $73 $114 #
-80 ellipse-curve $-1 -1 -1 $-1 7.8612159321677266 -2.1160254037844384 6.2320508075688776 0.86602540378443837 -0.49999999999999972 6.9388939039072284e-17 0.21650635094610943 0.375 0.25 1 I I #
-81 coedge $-1 -1 -1 $-1 $51 $51 $47 $82 reversed $84 $-1 #
-82 edge $-1 -1 -1 $-1 $58 5.5511151231257852e-17 $55 3.1415926237874716 $47 $115 forward @7 unknown F #
-83 pcurve $-1 -1 -1 $-1 0 forward { exppc 16 nubs 1 open 2 
	5.5511151231257852e-17 1 3.1415926237874716 1 
	5.5511151231257852e-17 0 
	3.1415926237874712 0 
	0 
	-1 
	spline forward { ref 1 } I I I I 
	} 0 0 #
-84 loop $-1 -1 -1 $-1 $-1 $81 $88 F unknown #
-85 ellipse-curve $-1 -1 -1 $-1 1.9330127018922192 3.6160254037844384 2.7679491924311228 0.86602540378443849 -0.49999999999999989 2.7755575615628914e-17 0.21650635094610982 0.375 0.25 1 I I #
-86 point $-1 -1 -1 $-1 2.1495190528383286 3.9910254037844384 3.0179491924311228 #
-87 point $-1 -1 -1 $-1 1.7165063509461096 3.2410254037844384 2.5179491924311228 #
-88 face $-1 -1 -1 $-1 $-1 $116 $2 $-1 $117 forward single F F #
-89 loop $-1 -1 -1 $-1 $77 $97 $60 F unknown #
-90 plane-surface $-1 -1 -1 $-1 8.4282032302755088 -1.1339745962155607 2.2679491924311237 -0.86602540378443837 0.49999999999999972 -6.9388939039072284e-17 -0.4330127018922193 -0.74999999999999989 0.50000000000000022 forward_v I I I I #
-91 face $-1 -1 -1 $-1 $60 $118 $2 $-1 $119 forward single F F #
-92 loop $-1 -1 -1 $-1 $-1 $120 $63 F unknown #
-93 spline-surface $-1 -1 -1 $-1 forward { rotsur 17 
	ellipse 1.9625211990796929 3.6671356201681462 2.6657287596637076 -0.86602540378443849 0.49999999999999989 -2.7755575615628914e-17 0.15350420470474546 0.26587708172407298 1.468245836551854 1 I I 
	4.7141016151377544 0.43301270189222008 3.1339745962155621 0.43301270189221924 0.74999999999999989 0.49999999999999994 
	none F -1.4594553124539327 F 0 F 0 F 4.7123889803846897 OPEN OPEN NON_SINGULAR NON_SINGULAR 
	0 
	0 
	0 
	0 
	0 
	0 
	} F -1.4594553124539327 F 0 F 0 F 3.1415926536025296 #
-94 coedge $-1 -1 -1 $-1 $121 $122 $123 $124 forward $64 $-1 #
-95 coedge $-1 -1 -1 $-1 $125 $66 $122 $126 reversed $39 $127 #
-96 coedge $-1 -1 -1 $-1 $66 $125 $128 $129 forward $39 $130 #
-97 coedge $-1 -1 -1 $-1 $131 $123 $66 $98 reversed $89 $-1 #
-98 edge $-1 -1 -1 $-1 $132 -6.4146219200564589e-16 $133 1.4594553124539322 $66 $134 forward @7 unknown F #
-99 pcurve $-1 -1 -1 $-1 0 forward { exppc 18 nubs 1 open 2 
	-6.4146219200564589e-16 1 1.4594553124539322 1 
	0 3.1415926535897931 
	-1.4594553124539322 3.1415926535897931 
	0.001 
	1.6482371023585074e-11 
	spline forward { ref 8 } I I I I 
	} 0 0 #
-100 coedge $-1 -1 -1 $-1 $68 $67 $135 $136 forward $21 $137 #
-101 pcurve $-1 -1 -1 $-1 0 forward { exppc 19 nubs 1 open 2 
	-2.4993215441762198 1 0.64227110941357268 1 
	0 3.1415926535897931 
	0 2.8478327033495657e-16 
	0 
	-1 
	spline forward { ref 4 } I I I I 
	} 0 0 #
-102 pcurve $-1 -1 -1 $-1 0 forward { exppc 20 nubs 1 open 2 
	-0.64227110941357268 1 2.4993215441762207 1 
	3.1415926535897936 0 
	3.1415926535897936 3.1415926535897931 
	0 
	-1 
	spline forward { ref 4 } I I I I 
	} 0 0 #
-103 ellipse-curve $-1 -1 -1 $-1 7.8612159321677266 -2.1160254037844384 6.2320508075688776 0.86602540378443837 -0.49999999999999972 6.9388939039072284e-17 -0.21650635094610943 -0.375 -0.25 1 I I #
-104 coedge $-1 -1 -1 $-1 $135 $135 $72 $105 reversed $138 $-1 #
-105 edge $-1 -1 -1 $-1 $108 0 $111 3.1415926535897931 $72 $139 forward @7 unknown F #
-106 pcurve $-1 -1 -1 $-1 0 forward { exppc 21 nubs 1 open 2 
	0 1 3.1415926535897931 1 
	0 0 
	3.1415926535897936 0 
	0 
	-1 
	spline forward { ref 2 } I I I I 
	} 0 0 #
-107 integer_attrib-name_attrib-gen-attrib $-1 -1 $-1 $-1 $73 2 3 2 1 1 1 1 1 1 1 1 1 1 1 0 1 1 1 @12 make_tangent 1 #
-108 vertex $-1 -1 -1 $-1 $136 $140 #
-109 ellipse-curve $-1 -1 -1 $-1 5.3636206679760825 1.5580127018922185 3.8839745962155612 0.43301270189221924 0.74999999999999989 0.49999999999999994 -4.3285862445643666 2.5026611349793364 -0.0053260522043839789 1 F -0.64227110941357268 F 2.4993215441762207 #
-110 integer_attrib-name_attrib-gen-attrib $-1 -1 $-1 $-1 $75 2 3 2 1 1 1 1 1 1 1 1 1 1 1 0 1 1 1 @12 make_tangent 1 #
-111 vertex $-1 -1 -1 $-1 $136 $141 #
-112 ellipse-curve $-1 -1 -1 $-1 4.9306079660838638 0.80801270189221919 3.3839745962155616 0.43301270189221924 0.74999999999999989 0.49999999999999994 -4.3285862445643675 2.5026611349793368 -0.0053260522043839797 1 F -0.64227110941357268 F 2.4993215441762198 #
-113 point $-1 -1 -1 $-1 7.6447095812216164 -2.4910254037844393 5.9820508075688785 #
-114 point $-1 -1 -1 $-1 8.0777222831138378 -1.7410254037844388 6.482050807568875 #
-115 ellipse-curve $-1 -1 -1 $-1 1.933012700029574 3.6160254005582422 2.7679491988835148 0.86602540378443849 -0.49999999999999989 2.7755575615628914e-17 -0.21650634908346444 -0.3749999967738038 -0.25000000645239195 1 I I #
-116 loop $-1 -1 -1 $-1 $138 $142 $88 F unknown #
-117 plane-surface $-1 -1 -1 $-1 1 2 4 0.86602540378443849 -0.49999999999999989 2.7755575615628914e-17 3.2049378106392736e-17 0 -1 forward_v I I I I #
-118 loop $-1 -1 -1 $-1 $-1 $143 $91 F unknown #
-119 plane-surface $-1 -1 -1 $-1 1.75 3.299038105676658 1.4019237886466844 -0.43301270189216906 -0.75000000000002709 -0.500000000000003 -0.25000000000000006 -0.43301270189221935 0.86602540378443871 forward_v I I I I #
-120 coedge $-1 -1 -1 $-1 $144 $145 $146 $147 forward $92 $148 #
-121 coedge $-1 -1 -1 $-1 $149 $94 $145 $150 reversed $64 $-1 #
-122 coedge $-1 -1 -1 $-1 $94 $149 $95 $126 forward $64 $-1 #
-123 coedge $-1 -1 -1 $-1 $97 $146 $94 $124 reversed $89 $-1 #
-124 edge $-1 -1 -1 $-1 $133 1.4422220147876728e-15 $151 4.0000000000000009 $94 $152 forward @7 unknown F #
-125 coedge $-1 -1 -1 $-1 $96 $95 $153 $154 reversed $39 $155 #
-126 edge $-1 -1 -1 $-1 $156 -0.7841681640177367 $133 2.3574244895720557 $122 $157 forward @7 unknown F #
-127 pcurve $-1 -1 -1 $-1 0 forward { exppc 22 nubs 1 open 2 
	-2.3574244895720557 1 0.7841681640177367 1 
	-1.4594553124539322 3.1415926535897922 
	-1.4594553124539322 3.9621917855260216e-16 
	0 
	-1 
	spline forward { ref 8 } I I I I 
	} 0 0 #
-128 coedge $-1 -1 -1 $-1 $158 $143 $96 $129 reversed $118 $-1 #
-129 edge $-1 -1 -1 $-1 $159 -0.7841681640177367 $132 2.3574244895720566 $96 $160 forward @7 unknown F #
-130 pcurve $-1 -1 -1 $-1 0 forward { exppc 23 nubs 1 open 2 
	-0.7841681640177367 1 2.3574244895720566 1 
	0 1.511983158142291e-16 
	0 3.1415926535897931 
	0 
	-1 
	spline forward { ref 8 } I I I I 
	} 0 0 #
-131 coedge $-1 -1 -1 $-1 $146 $97 $143 $161 reversed $89 $-1 #
-132 vertex $-1 -1 -1 $-1 $129 $162 #
-133 vertex $-1 -1 -1 $-1 $126 $163 #
-134 ellipse-curve $-1 -1 -1 $-1 7.8907244293552008 -2.0649151874007297 6.1298303748014629 -0.86602540378443837 0.49999999999999972 -6.9388939039072284e-17 -0.71252119907969302 -1.2341229182759272 0.46824583655185403 1 I I #
-135 coedge $-1 -1 -1 $-1 $104 $104 $100 $136 reversed $138 $-1 #
-136 edge $-1 -1 -1 $-1 $111 0 $108 3.1415926535897931 $100 $164 forward @7 unknown F #
-137 pcurve $-1 -1 -1 $-1 0 forward { exppc 24 nubs 1 open 2 
	0 1 3.1415926535897931 1 
	0 0 
	3.1415926535897936 0 
	0 
	-1 
	spline forward { ref 4 } I I I I 
	} 0 0 #
-138 loop $-1 -1 -1 $-1 $84 $135 $88 F unknown #
-139 ellipse-curve $-1 -1 -1 $-1 2.4330127018922192 4.4820508075688767 1.0358983848622456 0.86602540378443849 -0.49999999999999989 2.7755575615628914e-17 0.21650635094610982 0.375 0.25 1 I I #
-140 point $-1 -1 -1 $-1 2.649519052838329 4.8570508075688767 1.2858983848622456 #
-141 point $-1 -1 -1 $-1 2.2165063509461094 4.1070508075688767 0.78589838486224561 #
-142 coedge $-1 -1 -1 $-1 $153 $165 $158 $166 forward $116 $-1 #
-143 coedge $-1 -1 -1 $-1 $128 $167 $131 $161 forward $118 $-1 #
-144 coedge $-1 -1 -1 $-1 $168 $120 $167 $169 reversed $92 $170 #
-145 coedge $-1 -1 -1 $-1 $120 $168 $121 $150 forward $92 $171 #
-146 coedge $-1 -1 -1 $-1 $123 $131 $120 $147 reversed $89 $-1 #
-147 edge $-1 -1 -1 $-1 $151 3.9474596431116704e-16 $172 1.4594553124539322 $120 $173 forward @7 unknown F #
-148 pcurve $-1 -1 -1 $-1 0 forward { exppc 25 nubs 1 open 2 
	3.9474596431116704e-16 1 1.4594553124539322 1 
	0 3.1415926535897931 
	-1.459455312453932 3.1415926535897927 
	0.001 
	1.2736478538499796e-11 
	spline forward { ref 17 } I I I I 
	} 0 0 #
-149 coedge $-1 -1 -1 $-1 $122 $121 $174 $175 reversed $64 $-1 #
-150 edge $-1 -1 -1 $-1 $176 0.0012299993797115906 $151 3.1428226529695049 $145 $177 forward @7 unknown F #
-151 vertex $-1 -1 -1 $-1 $150 $178 #
-152 straight-curve $-1 -1 -1 $-1 8.0442286340599463 -1.7990381056766576 7.5980762113533178 0.25000000000000017 0.4330127018922193 -0.86602540378443882 1.0000000000000002 I I #
-153 coedge $-1 -1 -1 $-1 $174 $142 $125 $154 forward $116 $-1 #
-154 edge $-1 -1 -1 $-1 $159 2.4671622769447916e-17 $156 1.4594553124539322 $125 $179 forward @7 unknown F #
-155 pcurve $-1 -1 -1 $-1 0 forward { exppc 26 nubs 1 open 2 
	-1.4594553124539322 1 -2.4671622769447916e-17 1 
	-1.4594553124539322 0 
	0 0 
	0 
	-1 
	spline forward { ref 8 } I I I I 
	} 0 0 #
-156 vertex $-1 -1 -1 $-1 $154 $180 #
-157 ellipse-curve $-1 -1 -1 $-1 5.5801270189221928 1.9330127018922194 4.1339745962155616 0.43301270189221924 0.74999999999999989 0.49999999999999994 -4.8972362983716407 2.8314378552894568 -0.0060257402090775547 1 F -0.7841681640177367 F 2.3574244895720557 #
-158 coedge $-1 -1 -1 $-1 $167 $128 $142 $166 reversed $118 $-1 #
-159 vertex $-1 -1 -1 $-1 $166 $181 #
-160 ellipse-curve $-1 -1 -1 $-1 4.7141016151377544 0.43301270189221941 3.1339745962155616 0.43301270189221924 0.74999999999999989 0.49999999999999994 -4.8972362983716407 2.8314378552894568 -0.0060257402090775547 1 F -0.7841681640177367 F 2.3574244895720566 #
-161 edge $-1 -1 -1 $-1 $172 -9.614813431917824e-17 $132 3.9999999999999991 $143 $182 forward @7 unknown F #
-162 point $-1 -1 -1 $-1 7.1782032302755088 -3.2990381056766571 6.598076211353316 #
-163 point $-1 -1 -1 $-1 8.0442286340599463 -1.7990381056766578 7.598076211353316 #
-164 ellipse-curve $-1 -1 -1 $-1 2.4330127018922192 4.4820508075688767 1.0358983848622456 0.86602540378443849 -0.49999999999999989 2.7755575615628914e-17 -0.21650635094610982 -0.375 -0.25 1 I I #
-165 coedge $-1 -1 -1 $-1 $142 $174 $168 $183 forward $116 $-1 #
-166 edge $-1 -1 -1 $-1 $184 0 $159 4 $158 $185 forward @7 unknown F #
-167 coedge $-1 -1 -1 $-1 $143 $158 $144 $169 forward $118 $-1 #
-168 coedge $-1 -1 -1 $-1 $145 $144 $165 $183 reversed $92 $186 #
-169 edge $-1 -1 -1 $-1 $184 0.0012299993797115871 $172 3.1428226529695049 $167 $187 forward @7 unknown F #
-170 pcurve $-1 -1 -1 $-1 0 forward { exppc 27 nubs 1 open 2 
	-3.1428226529695049 1 -0.0012299993797115871 1 
	-1.4594553124539327 3.1415926535897931 
	-1.4594553124539327 4.2294786690702493e-16 
	0 
	-1 
	spline forward { ref 17 } I I I I 
	} 0 0 #
-171 pcurve $-1 -1 -1 $-1 0 forward { exppc 28 nubs 1 open 2 
	0.0012299993797115906 1 3.1428226529695049 1 
	0 0 
	0 3.1415926535897931 
	0 
	-1 
	spline forward { ref 17 } I I I I 
	} 0 0 #
-172 vertex $-1 -1 -1 $-1 $169 $188 #
-173 ellipse-curve $-1 -1 -1 $-1 8.3317074349802542 -1.3011102163837069 4.6022204327674165 -0.86602540378443837 0.49999999999999972 -6.9388939039072284e-17 0.71252119907969291 1.2341229182759266 -0.46824583655185448 1 I I #
-174 coedge $-1 -1 -1 $-1 $165 $153 $149 $175 forward $116 $-1 #
-175 edge $-1 -1 -1 $-1 $156 -4.8074067159589103e-16 $176 4 $149 $189 forward @7 unknown F #
-176 vertex $-1 -1 -1 $-1 $175 $190 #
-177 ellipse-curve $-1 -1 -1 $-1 5.5801270189221928 1.9330127018922192 4.1339745962155616 0.43301270189221924 0.74999999999999989 0.49999999999999994 -3.462868995651494 2.0021289079834697 -0.0042608417635071841 1 F 0.0012299993797115906 F 3.1428226529695049 #
-178 point $-1 -1 -1 $-1 9.0442286340599463 -0.066987298107780813 4.1339745962155616 #
-179 ellipse-curve $-1 -1 -1 $-1 2.4035042047047455 4.4309405911851698 1.1381188176296615 0.86602540378443849 -0.49999999999999989 2.7755575615628914e-17 -0.15350420470474591 -0.26587708172407343 -1.4682458365518543 1 I I #
-180 point $-1 -1 -1 $-1 3.1160254037844384 5.6650635094610964 0.66987298107780668 #
-181 point $-1 -1 -1 $-1 2.25 4.1650635094610964 -0.33012701892219276 #
-182 straight-curve $-1 -1 -1 $-1 8.1782032302755088 -1.5669872981077795 3.1339745962155625 -0.25000000000000017 -0.4330127018922193 0.86602540378443882 1.0000000000000002 I I #
-183 edge $-1 -1 -1 $-1 $176 -2.4671622769447928e-17 $184 1.4594553124539327 $168 $191 forward @7 unknown F #
-184 vertex $-1 -1 -1 $-1 $166 $192 #
-185 straight-curve $-1 -1 -1 $-1 1.25 2.4330127018922192 3.1339745962155616 0.25000000000000006 0.43301270189221935 -0.86602540378443871 1 I I #
-186 pcurve $-1 -1 -1 $-1 0 forward { exppc 29 nubs 1 open 2 
	-1.4594553124539327 1 2.4671622769447928e-17 1 
	-1.4594553124539322 0 
	0 0 
	0 
	-1 
	spline forward { ref 17 } I I I I 
	} 0 0 #
-187 ellipse-curve $-1 -1 -1 $-1 4.7141016151377544 0.43301270189221958 3.1339745962155616 0.43301270189221924 0.74999999999999989 0.49999999999999994 -3.4628689956514935 2.0021289079834692 -0.0042608417635071833 1 F 0.0012299993797115871 F 3.1428226529695049 #
-188 point $-1 -1 -1 $-1 8.1782032302755088 -1.5669872981077801 3.1339745962155621 #
-189 straight-curve $-1 -1 -1 $-1 3.1160254037844384 5.6650635094610964 0.66987298107780724 -0.25000000000000006 -0.43301270189221935 0.86602540378443871 1 I I #
-190 point $-1 -1 -1 $-1 2.1160254037844384 3.9330127018922192 4.1339745962155616 #
-191 ellipse-curve $-1 -1 -1 $-1 1.9625211990796929 3.6671356201681462 2.6657287596637076 0.86602540378443849 -0.49999999999999989 2.7755575615628914e-17 0.15350420470474546 0.26587708172407298 1.468245836551854 1 I I #
-192 point $-1 -1 -1 $-1 1.25 2.4330127018922192 3.1339745962155616 #
End-of-ACIS-data 