3400 0 1 0           
15 acis_api_access 14 ACIS 34.0.1 NT 24 Fri Aug  2 15:54:01 2024 
1 9.9999999999999995e-07 1e-10 
T @77 FH4SB2GH_P2_Q29TD8WDP_R88784MANBDAVUUJPH3CMUS49U69P4KJNDKAJVS67X29SKKJ6VEC4ME 
-0 body $-1 -1 -1 $-1 0 $1 $-1 $-1 F #
-1 lump $-1 -1 -1 $-1 $-1 $2 $0 F #
-2 shell $-1 -1 -1 $-1 $-1 $-1 $3 $-1 $1 F #
-3 face $-1 -1 -1 $-1 $4 $5 $2 $-1 $6 forward single F T -1.4594553124539322 0 0 3.1415926536062755 #
-4 face $-1 -1 -1 $-1 $7 $8 $2 $-1 $9 forward single F F #
-5 loop $-1 -1 -1 $-1 $-1 $10 $3 F unknown #
-6 spline-surface $-1 -1 -1 $-1 forward { rotsur 0 
	ellipse 2.4035042047047455 4.4309405911851698 1.1381188176296615 -0.86602540378443849 0.49999999999999989 -2.7755575615628914e-17 -0.15350420470474591 -0.26587708172407343 -1.4682458365518543 1 I I 
	4.7141016151377544 0.43301270189222008 3.1339745962155621 0.43301270189221924 0.74999999999999989 0.49999999999999994 
	none F -1.4594553124539322 F 0 F 0 F 4.7123889803846897 OPEN OPEN NON_SINGULAR NON_SINGULAR 
	0 
	0 
	0 
	0 
	0 
	0 
	} F -1.4594553124539322 F 0 F 0 F 3.1415926536062755 #
-7 face $-1 -1 -1 $-1 $11 $12 $2 $-1 $13 forward single F T -1.4594553124539327 0 0 3.1415926536025296 #
-8 loop $-1 -1 -1 $-1 $-1 $14 $4 F unknown #
-9 plane-surface $-1 -1 -1 $-1 2.6160254037844384 4.799038105676658 2.401923788646684 0.4330127018921251 0.75000000000005163 0.50000000000000433 0.25000000000000006 0.43301270189221935 -0.86602540378443871 forward_v I I I I #
-10 coedge $-1 -1 -1 $-1 $15 $16 $17 $18 forward $5 $19 #
-11 face $-1 -1 -1 $-1 $20 $21 $2 $-1 $22 forward single F F #
-12 loop $-1 -1 -1 $-1 $-1 $23 $7 F unknown #
-13 spline-surface $-1 -1 -1 $-1 forward { rotsur 1 
	ellipse 1.9625211990796929 3.6671356201681462 2.6657287596637076 -0.86602540378443849 0.49999999999999989 -2.7755575615628914e-17 0.15350420470474546 0.26587708172407298 1.468245836551854 1 I I 
	4.7141016151377544 0.43301270189222008 3.1339745962155621 0.43301270189221924 0.74999999999999989 0.49999999999999994 
	none F -1.4594553124539327 F 0 F 0 F 4.7123889803846897 OPEN OPEN NON_SINGULAR NON_SINGULAR 
	0 
	0 
	0 
	0 
	0 
	0 
	} F -1.4594553124539327 F 0 F 0 F 3.1415926536025296 #
-14 coedge $-1 -1 -1 $-1 $24 $25 $26 $27 forward $8 $-1 #
-15 coedge $-1 -1 -1 $-1 $28 $10 $25 $29 reversed $5 $30 #
-16 coedge $-1 -1 -1 $-1 $10 $28 $31 $32 forward $5 $33 #
-17 coedge $-1 -1 -1 $-1 $34 $26 $10 $18 reversed $35 $-1 #
-18 edge $-1 -1 -1 $-1 $36 -6.4146219200564589e-16 $37 1.4594553124539322 $10 $38 forward @7 unknown F #
-19 pcurve $-1 -1 -1 $-1 0 forward { exppc 2 nubs 1 open 2 
	-6.4146219200564589e-16 1 1.4594553124539322 1 
	0 3.1415926535897931 
	-1.4594553124539322 3.1415926535897931 
	0.001 
	1.6482371023585074e-11 
	spline forward { ref 0 } I I I I 
	} 0 0 #
-20 face $-1 -1 -1 $-1 $39 $35 $2 $-1 $40 reversed single F F #
-21 loop $-1 -1 -1 $-1 $-1 $41 $11 F unknown #
-22 plane-surface $-1 -1 -1 $-1 1.75 3.299038105676658 1.4019237886466844 -0.43301270189216906 -0.75000000000002709 -0.500000000000003 -0.25000000000000006 -0.43301270189221935 0.86602540378443871 forward_v I I I I #
-23 coedge $-1 -1 -1 $-1 $42 $43 $44 $45 forward $12 $46 #
-24 coedge $-1 -1 -1 $-1 $47 $14 $43 $48 reversed $8 $-1 #
-25 coedge $-1 -1 -1 $-1 $14 $47 $15 $29 forward $8 $-1 #
-26 coedge $-1 -1 -1 $-1 $17 $44 $14 $27 reversed $35 $-1 #
-27 edge $-1 -1 -1 $-1 $37 1.4422220147876728e-15 $49 4.0000000000000009 $14 $50 forward @7 unknown F #
-28 coedge $-1 -1 -1 $-1 $16 $15 $51 $52 reversed $5 $53 #
-29 edge $-1 -1 -1 $-1 $54 -0.7841681640177367 $37 2.3574244895720557 $25 $55 forward @7 unknown F #
-30 pcurve $-1 -1 -1 $-1 0 forward { exppc 3 nubs 1 open 2 
	-2.3574244895720557 1 0.7841681640177367 1 
	-1.4594553124539322 3.1415926535897922 
	-1.4594553124539322 3.9621917855260216e-16 
	0 
	-1 
	spline forward { ref 0 } I I I I 
	} 0 0 #
-31 coedge $-1 -1 -1 $-1 $56 $41 $16 $32 reversed $21 $-1 #
-32 edge $-1 -1 -1 $-1 $57 -0.7841681640177367 $36 2.3574244895720566 $16 $58 forward @7 unknown F #
-33 pcurve $-1 -1 -1 $-1 0 forward { exppc 4 nubs 1 open 2 
	-0.7841681640177367 1 2.3574244895720566 1 
	0 1.511983158142291e-16 
	0 3.1415926535897931 
	0 
	-1 
	spline forward { ref 0 } I I I I 
	} 0 0 #
-34 coedge $-1 -1 -1 $-1 $44 $17 $41 $59 reversed $35 $-1 #
-35 loop $-1 -1 -1 $-1 $-1 $17 $20 F unknown #
-36 vertex $-1 -1 -1 $-1 $32 $60 #
-37 vertex $-1 -1 -1 $-1 $29 $61 #
-38 ellipse-curve $-1 -1 -1 $-1 7.8907244293552008 -2.0649151874007297 6.1298303748014629 -0.86602540378443837 0.49999999999999972 -6.9388939039072284e-17 -0.71252119907969302 -1.2341229182759272 0.46824583655185403 1 I I #
-39 face $-1 -1 -1 $-1 $-1 $62 $2 $-1 $63 forward single F F #
-40 plane-surface $-1 -1 -1 $-1 8.4282032302755088 -1.1339745962155607 2.2679491924311237 -0.86602540378443837 0.49999999999999972 -6.9388939039072284e-17 -0.4330127018922193 -0.74999999999999989 0.50000000000000022 forward_v I I I I #
-41 coedge $-1 -1 -1 $-1 $31 $64 $34 $59 forward $21 $-1 #
-42 coedge $-1 -1 -1 $-1 $65 $23 $64 $66 reversed $12 $67 #
-43 coedge $-1 -1 -1 $-1 $23 $65 $24 $48 forward $12 $68 #
-44 coedge $-1 -1 -1 $-1 $26 $34 $23 $45 reversed $35 $-1 #
-45 edge $-1 -1 -1 $-1 $49 3.9474596431116704e-16 $69 1.4594553124539322 $23 $70 forward @7 unknown F #
-46 pcurve $-1 -1 -1 $-1 0 forward { exppc 5 nubs 1 open 2 
	3.9474596431116704e-16 1 1.4594553124539322 1 
	0 3.1415926535897931 
	-1.459455312453932 3.1415926535897927 
	0.001 
	1.2736478538499796e-11 
	spline forward { ref 1 } I I I I 
	} 0 0 #
-47 coedge $-1 -1 -1 $-1 $25 $24 $71 $72 reversed $8 $-1 #
-48 edge $-1 -1 -1 $-1 $73 0.0012299993797115906 $49 3.1428226529695049 $43 $74 forward @7 unknown F #
-49 vertex $-1 -1 -1 $-1 $48 $75 #
-50 straight-curve $-1 -1 -1 $-1 8.0442286340599463 -1.7990381056766576 7.5980762113533178 0.25000000000000017 0.4330127018922193 -0.86602540378443882 1.0000000000000002 I I #
-51 coedge $-1 -1 -1 $-1 $71 $76 $28 $52 forward $62 $-1 #
-52 edge $-1 -1 -1 $-1 $57 2.4671622769447916e-17 $54 1.4594553124539322 $28 $77 forward @7 unknown F #
-53 pcurve $-1 -1 -1 $-1 0 forward { exppc 6 nubs 1 open 2 
	-1.4594553124539322 1 -2.4671622769447916e-17 1 
	-1.4594553124539322 0 
	0 0 
	0 
	-1 
	spline forward { ref 0 } I I I I 
	} 0 0 #
-54 vertex $-1 -1 -1 $-1 $52 $78 #
-55 ellipse-curve $-1 -1 -1 $-1 5.5801270189221928 1.9330127018922194 4.1339745962155616 0.43301270189221924 0.74999999999999989 0.49999999999999994 -4.8972362983716407 2.8314378552894568 -0.0060257402090775547 1 F -0.7841681640177367 F 2.3574244895720557 #
-56 coedge $-1 -1 -1 $-1 $64 $31 $76 $79 reversed $21 $-1 #
-57 vertex $-1 -1 -1 $-1 $79 $80 #
-58 ellipse-curve $-1 -1 -1 $-1 4.7141016151377544 0.43301270189221941 3.1339745962155616 0.43301270189221924 0.74999999999999989 0.49999999999999994 -4.8972362983716407 2.8314378552894568 -0.0060257402090775547 1 F -0.7841681640177367 F 2.3574244895720566 #
-59 edge $-1 -1 -1 $-1 $69 -9.614813431917824e-17 $36 3.9999999999999991 $41 $81 forward @7 unknown F #
-60 point $-1 -1 -1 $-1 7.1782032302755088 -3.2990381056766571 6.598076211353316 #
-61 point $-1 -1 -1 $-1 8.0442286340599463 -1.7990381056766578 7.598076211353316 #
-62 loop $-1 -1 -1 $-1 $-1 $76 $39 F unknown #
-63 plane-surface $-1 -1 -1 $-1 1 2 4 0.86602540378443849 -0.49999999999999989 2.7755575615628914e-17 3.2049378106392736e-17 0 -1 forward_v I I I I #
-64 coedge $-1 -1 -1 $-1 $41 $56 $42 $66 forward $21 $-1 #
-65 coedge $-1 -1 -1 $-1 $43 $42 $82 $83 reversed $12 $84 #
-66 edge $-1 -1 -1 $-1 $85 0.0012299993797115871 $69 3.1428226529695049 $64 $86 forward @7 unknown F #
-67 pcurve $-1 -1 -1 $-1 0 forward { exppc 7 nubs 1 open 2 
	-3.1428226529695049 1 -0.0012299993797115871 1 
	-1.4594553124539327 3.1415926535897931 
	-1.4594553124539327 4.2294786690702493e-16 
	0 
	-1 
	spline forward { ref 1 } I I I I 
	} 0 0 #
-68 pcurve $-1 -1 -1 $-1 0 forward { exppc 8 nubs 1 open 2 
	0.0012299993797115906 1 3.1428226529695049 1 
	0 0 
	0 3.1415926535897931 
	0 
	-1 
	spline forward { ref 1 } I I I I 
	} 0 0 #
-69 vertex $-1 -1 -1 $-1 $66 $87 #
-70 ellipse-curve $-1 -1 -1 $-1 8.3317074349802542 -1.3011102163837069 4.6022204327674165 -0.86602540378443837 0.49999999999999972 -6.9388939039072284e-17 0.71252119907969291 1.2341229182759266 -0.46824583655185448 1 I I #
-71 coedge $-1 -1 -1 $-1 $82 $51 $47 $72 forward $62 $-1 #
-72 edge $-1 -1 -1 $-1 $54 -4.8074067159589103e-16 $73 4 $47 $88 forward @7 unknown F #
-73 vertex $-1 -1 -1 $-1 $72 $89 #
-74 ellipse-curve $-1 -1 -1 $-1 5.5801270189221928 1.9330127018922192 4.1339745962155616 0.43301270189221924 0.74999999999999989 0.49999999999999994 -3.462868995651494 2.0021289079834697 -0.0042608417635071841 1 F 0.0012299993797115906 F 3.1428226529695049 #
-75 point $-1 -1 -1 $-1 9.0442286340599463 -0.066987298107780813 4.1339745962155616 #
-76 coedge $-1 -1 -1 $-1 $51 $82 $56 $79 forward $62 $-1 #
-77 ellipse-curve $-1 -1 -1 $-1 2.4035042047047455 4.4309405911851698 1.1381188176296615 0.86602540378443849 -0.49999999999999989 2.7755575615628914e-17 -0.15350420470474591 -0.26587708172407343 -1.4682458365518543 1 I I #
-78 point $-1 -1 -1 $-1 3.1160254037844384 5.6650635094610964 0.66987298107780668 #
-79 edge $-1 -1 -1 $-1 $85 0 $57 4 $56 $90 forward @7 unknown F #
-80 point $-1 -1 -1 $-1 2.25 4.1650635094610964 -0.33012701892219276 #
-81 straight-curve $-1 -1 -1 $-1 8.1782032302755088 -1.5669872981077795 3.1339745962155625 -0.25000000000000017 -0.4330127018922193 0.86602540378443882 1.0000000000000002 I I #
-82 coedge $-1 -1 -1 $-1 $76 $71 $65 $83 forward $62 $-1 #
-83 edge $-1 -1 -1 $-1 $73 -2.4671622769447928e-17 $85 1.4594553124539327 $65 $91 forward @7 unknown F #
-84 pcurve $-1 -1 -1 $-1 0 forward { exppc 9 nubs 1 open 2 
	-1.4594553124539327 1 2.4671622769447928e-17 1 
	-1.4594553124539322 0 
	0 0 
	0 
	-1 
	spline forward { ref 1 } I I I I 
	} 0 0 #
-85 vertex $-1 -1 -1 $-1 $79 $92 #
-86 ellipse-curve $-1 -1 -1 $-1 4.7141016151377544 0.43301270189221958 3.1339745962155616 0.43301270189221924 0.74999999999999989 0.49999999999999994 -3.4628689956514935 2.0021289079834692 -0.0042608417635071833 1 F 0.0012299993797115871 F 3.1428226529695049 #
-87 point $-1 -1 -1 $-1 8.1782032302755088 -1.5669872981077801 3.1339745962155621 #
-88 straight-curve $-1 -1 -1 $-1 3.1160254037844384 5.6650635094610964 0.66987298107780724 -0.25000000000000006 -0.43301270189221935 0.86602540378443871 1 I I #
-89 point $-1 -1 -1 $-1 2.1160254037844384 3.9330127018922192 4.1339745962155616 #
-90 straight-curve $-1 -1 -1 $-1 1.25 2.4330127018922192 3.1339745962155616 0.25000000000000006 0.43301270189221935 -0.86602540378443871 1 I I #
-91 ellipse-curve $-1 -1 -1 $-1 1.9625211990796929 3.6671356201681462 2.6657287596637076 0.86602540378443849 -0.49999999999999989 2.7755575615628914e-17 0.15350420470474546 0.26587708172407298 1.468245836551854 1 I I #
-92 point $-1 -1 -1 $-1 1.25 2.4330127018922192 3.1339745962155616 #
End-of-ACIS-data 