200 0 1 0           
15 acis_api_access 14 ACIS 34.0.1 NT 24 Sun Aug  4 18:27:39 2024 
1 9.9999999999999995e-07 1e-10 
-0 body $-1 $1 $-1 $-1 #
-1 lump $-1 $-1 $2 $0 #
-2 shell $-1 $-1 $-1 $3 $-1 $1 #
-3 face $-1 $4 $5 $2 $-1 $6 reversed single #
-4 face $-1 $7 $8 $2 $-1 $9 forward single #
-5 loop $-1 $-1 $10 $3 #
-6 plane-surface $-1 1 1.9999999999999993 3 0 0 -1 -1 0 0 forward_v I I I I #
-7 face $-1 $-1 $11 $2 $-1 $12 forward single #
-8 loop $-1 $-1 $13 $4 #
-9 torus-surface $-1 1 2 3 0 1 0 5 5 1 0 0 forward_v I I I I #
-10 coedge $-1 $10 $10 $14 $15 1 $5 $-1 #
-11 loop $-1 $-1 $16 $7 #
-12 plane-surface $-1 1 1.9999999999999993 3 0.58778525229247303 0 0.80901699437494756 0.80901699437494756 0 -0.58778525229247303 forward_v I I I I #
-13 coedge $-1 $14 $14 $16 $17 0 $8 $-1 #
-14 coedge $-1 $13 $13 $10 $15 0 $8 $-1 #
-15 edge $-1 $18 $18 $14 $19 forward #
-16 coedge $-1 $16 $16 $13 $17 1 $11 $-1 #
-17 edge $-1 $18 $18 $13 $20 reversed #
-18 vertex $-1 $17 $21 #
-19 ellipse-curve $-1 6 2 3 0 0 -1 5 0 0 1 I I #
-20 ellipse-curve $-1 -3.0450849718747381 2 5.938926261462365 0.58778525229247303 0 0.80901699437494756 -4.0450849718747381 0 2.938926261462365 1 I I #
-21 point $-1 1 1.9999999999999993 3 #
End-of-ACIS-data 