200 0 1 0           
15 acis_api_access 14 ACIS 34.0.1 NT 24 Sun Aug  4 18:27:39 2024 
1 9.9999999999999995e-07 1e-10 
-0 body $-1 $1 $-1 $-1 #
-1 lump $-1 $-1 $2 $0 #
-2 shell $-1 $-1 $-1 $3 $-1 $1 #
-3 face $-1 $4 $5 $2 $-1 $6 reversed single #
-4 face $-1 $7 $8 $2 $-1 $9 forward single #
-5 loop $-1 $-1 $10 $3 #
-6 plane-surface $-1 3 1.9999999999999996 3 0 0 -1 -1 0 0 forward_v I I I I #
-7 face $-1 $-1 $11 $2 $-1 $12 forward single #
-8 loop $-1 $13 $14 $4 #
-9 torus-surface $-1 1 2 3 0 1 0 5 3 1 0 0 forward_v I I I I #
-10 coedge $-1 $10 $10 $15 $16 1 $5 $-1 #
-11 loop $-1 $-1 $17 $7 #
-12 plane-surface $-1 -0.61803398874989446 2.0000000000000004 1.8244294954150537 -0.58778525229247325 0 0.80901699437494734 0.80901699437494734 -0 0.58778525229247325 forward_v I I I I #
-13 loop $-1 $-1 $15 $4 #
-14 coedge $-1 $14 $14 $17 $18 0 $8 $-1 #
-15 coedge $-1 $15 $15 $10 $16 0 $13 $-1 #
-16 edge $-1 $19 $19 $15 $20 forward #
-17 coedge $-1 $17 $17 $14 $18 1 $11 $-1 #
-18 edge $-1 $21 $21 $14 $22 reversed #
-19 vertex $-1 $16 $23 #
-20 ellipse-curve $-1 6 2 3 0 0 -1 3 0 0 1 I I #
-21 vertex $-1 $18 $24 #
-22 ellipse-curve $-1 -3.0450849718747364 2 0.061073738537633648 -0.58778525229247325 0 0.80901699437494734 -2.4270509831248419 0 -1.7633557568774196 1 I I #
-23 point $-1 3 1.9999999999999996 3 #
-24 point $-1 -0.61803398874989446 2.0000000000000004 1.8244294954150537 #
End-of-ACIS-data 