200 0 1 0           
15 acis_api_access 14 ACIS 34.0.1 NT 24 Sun Aug  4 18:27:39 2024 
1 9.9999999999999995e-07 1e-10 
-0 body $-1 $1 $-1 $-1 #
-1 lump $-1 $-1 $2 $0 #
-2 shell $-1 $-1 $-1 $3 $-1 $1 #
-3 face $-1 $4 $5 $2 $-1 $6 reversed single #
-4 face $-1 $7 $8 $2 $-1 $9 forward single #
-5 loop $-1 $-1 $10 $3 #
-6 plane-surface $-1 1 8.2449979983983983 3 0 0 -1 -1 0 0 forward_v I I I I #
-7 face $-1 $-1 $11 $2 $-1 $12 forward single #
-8 loop $-1 $-1 $13 $4 #
-9 torus-surface $-1 1 2 3 0 1 0 -5 8 1 0 0 forward_v I I I I #
-10 coedge $-1 $14 $14 $15 $16 1 $5 $-1 #
-11 loop $-1 $-1 $15 $7 #
-12 plane-surface $-1 1 -4.2449979983983983 3 0.95105651629515353 0 0.30901699437494767 0.30901699437494767 0 -0.95105651629515353 forward_v I I I I #
-13 coedge $-1 $17 $17 $18 $19 0 $8 $-1 #
-14 coedge $-1 $10 $10 $17 $20 1 $5 $-1 #
-15 coedge $-1 $18 $18 $10 $16 0 $11 $-1 #
-16 edge $-1 $21 $22 $15 $23 forward #
-17 coedge $-1 $13 $13 $14 $20 0 $8 $-1 #
-18 coedge $-1 $15 $15 $13 $19 1 $11 $-1 #
-19 edge $-1 $21 $22 $13 $24 reversed #
-20 edge $-1 $22 $21 $17 $25 forward #
-21 vertex $-1 $19 $26 #
-22 vertex $-1 $19 $27 #
-23 straight-curve $-1 1 2 3 0 1 0 I I #
-24 ellipse-curve $-1 2.5450849718747381 2 -1.7552825814757673 0.95105651629515353 0 0.30901699437494767 -2.4721359549995814 0 7.6084521303612282 1 I I #
-25 ellipse-curve $-1 -4 2 3 0 0 -1 8 0 0 1 I I #
-26 point $-1 1 -4.2449979983983983 3 #
-27 point $-1 1 8.2449979983983983 3 #
End-of-ACIS-data 