200 0 1 0           
15 acis_api_access 14 ACIS 34.0.1 NT 24 Sun Aug  4 18:27:39 2024 
1 9.9999999999999995e-07 1e-10 
-0 body $-1 $1 $-1 $-1 #
-1 lump $-1 $-1 $2 $0 #
-2 shell $-1 $-1 $-1 $3 $-1 $1 #
-3 face $-1 $-1 $4 $2 $-1 $5 forward single #
-4 loop $-1 $6 $7 $3 #
-5 torus-surface $-1 1 2 3 0 1 0 5 5 1 0 0 forward_v I I I I #
-6 loop $-1 $-1 $8 $3 #
-7 coedge $-1 $7 $7 $8 $9 0 $4 $-1 #
-8 coedge $-1 $8 $8 $7 $9 1 $6 $-1 #
-9 edge $-1 $10 $10 $7 $-1 forward #
-10 vertex $-1 $9 $11 #
-11 point $-1 1 2 3 #
End-of-ACIS-data 