3200 0 1 0           
9 SimpleApi 14 ACIS 34.0.1 NT 24 Mon Nov 18 16:41:38 2024 
1 9.9999999999999995e-07 1e-10 
T @77 4B2C6PMPE7A27NYV3C67VCNGS2PKJ6N3W8TCW2Q4Y83MEG797DRVE86WX8RVJXP5FCM3F66UEAR3P 
-0 body $-1 -1 -1 $-1 0 $1 $-1 $-1 F #
-1 lump $-1 -1 -1 $-1 $-1 $2 $0 F #
-2 shell $-1 -1 -1 $-1 $-1 $-1 $3 $-1 $1 F #
-3 face $-1 -1 -1 $-1 $4 $5 $2 $-1 $6 reversed single F F #
-4 face $-1 -1 -1 $-1 $7 $8 $2 $-1 $9 forward single F F #
-5 loop $-1 -1 -1 $-1 $-1 $10 $3 F unknown #
-6 plane-surface $-1 -1 -1 $-1 0 0 0 0 0 1 1 0 0 forward_v I I I I #
-7 face $-1 -1 -1 $-1 $-1 $11 $2 $-1 $12 forward single F F #
-8 loop $-1 -1 -1 $-1 $-1 $13 $4 F unknown #
-9 spline-surface $-1 -1 -1 $-1 forward { sweepsur 0 R11 
	angled 
	ellipse 0 0 0 0 0 1 10 0 0 1 I I 
	straight 10 0 0 0 0 1 I I 
	angled 
	0 0 1 
	non_rigid 
	non_axis_sweep 
	10 0 0 
	0 1 0 
	-1 0 0 
	0 0 1 
	0 10 
	0 0 @23 DOMAIN(VEC(0,1,0),0,10) 
	0 
	@1 0 
	0 
	@22 VEC(1+0.1*X,1+0.1*X,1) 
	0 
	full nubs 3 3 periodic open none none 33 2 
	0 3 0.19634954084936207 1 0.39269908169872414 1 0.58904862254808621 1 0.78539816339744828 1 
	0.98174770424681035 1 1.1780972450961724 1 1.3744467859455345 1 1.5707963267948966 1 1.7671458676442586 1 
	1.9634954084936207 1 2.1598449493429825 1 2.3561944901923448 1 2.5525440310417071 1 2.748893571891069 1 
	2.9452431127404308 1 3.1415926535897931 1 3.3379421944391554 1 3.5342917352885173 1 3.7306412761378791 1 
	3.9269908169872414 1 4.1233403578366037 1 4.3196898986859651 1 4.5160394395353274 1 4.7123889803846897 1 
	4.908738521234052 1 5.1050880620834143 1 5.3014376029327757 1 5.497787143782138 1 5.6941366846315002 1 
	5.8904862254808616 1 6.0868357663302239 1 6.2831853071795862 3 
	0 3 10 3 
	10 0 0 
	9.999967275076143 0.65449846840704273 0 
	9.8710763308427367 1.9634726521613286 0 
	9.2983518550477537 3.8514965357438324 0 
	8.3682969320376799 5.5915095674016309 0 
	7.1166530509246932 7.1166440221393596 0 
	5.591520184131527 8.368289838165996 0 
	3.8515083324212434 9.29834696870385 0 
	1.9634851754473801 9.8710738398064741 0 
	6.3843159919807491e-06 10.064460879006969 0 
	-1.9634726521616539 9.8710763308427367 0 
	-3.8514965357442668 9.2983518550471711 0 
	-5.5915095674022108 8.3682969320376834 0 
	-7.1166440221387788 7.1166530509246924 0 
	-8.3682898381651274 5.5915201841310944 0 
	-9.2983469687038465 3.8515083324213877 0 
	-9.8710738398064741 1.9634851754470901 0 
	-10.064460879005805 6.384315921481587e-06 0 
	-9.8710763308421559 -1.9634726521612187 0 
	-9.2983518550483346 -3.8514965357431783 0 
	-8.3682969320385538 -5.59150956740163 0 
	-7.1166530509264376 -7.1166440221393596 0 
	-5.5915201841321123 -8.3682898381659943 0 
	-3.8515083324212451 -9.2983469687032656 0 
	-1.9634851754470932 -9.8710738398058897 0 
	-6.384315994534262e-06 -10.064460879007552 0 
	1.9634726521610752 -9.8710763308433194 0 
	3.851496535743979 -9.2983518550477484 0 
	5.5915095674027917 -8.3682969320379712 0 
	7.1166440221402274 -7.1166530509255699 0 
	8.3682898381657047 -5.5915201841312392 0 
	9.2983469687032656 -3.8515083324214641 0 
	9.8711065647303293 -1.9634851754475287 0 
	9.999967275076143 -0.65449846840552051 0 
	10 -2.4492935982947061e-15 0 
	10 0 3.333333333329449 
	9.9999563851756097 0.87266462454541238 3.333333333329449 
	9.8281017701224584 2.6179635328556961 3.333333333329449 
	9.0644691489290601 5.135328706071852 3.333333333329449 
	7.8243959107531875 7.455346097966018 3.333333333329449 
	6.1555373869956931 9.4888586978413407 3.333333333329449 
	4.1220269080040435 11.157719776555792 3.333333333329449 
	1.802011119874789 12.397795968334975 3.333333333329449 
	-0.71535311070649288 13.16143179854617 3.333333333329449 
	-3.333324817489971 13.419281167148878 3.333333333329449 
	-5.9512968667269872 13.161435103418416 3.333333333329449 
	-8.4686620467382596 12.397802482350261 3.333333333329449 
	-10.788679411911415 11.157729234427237 3.333333333329449 
	-12.822192031158927 9.4888707203804668 3.333333333329449 
	-14.491053119650426 7.4553602461623392 3.333333333329449 
	-15.731129321096796 5.1353444508227764 3.333333333329449 
	-16.494765151337603 2.6179802367393914 3.333333333329449 
	-16.752614500414069 8.5109468537236665e-06 3.333333333329449 
	-16.49476841745517 -2.617963532855585 3.333333333329449 
	-15.731135796359151 -5.1353287060711974 3.333333333329449 
	-14.491062577523614 -7.4553460979660198 3.333333333329449 
	-12.822204063388902 -9.4888586978413443 3.333333333329449 
	-10.788693574640956 -11.157719776555787 3.333333333329449 
	-8.4686777769558166 -12.397795968334389 3.333333333329449 
	-5.9513135560627743 -13.161431798545587 3.333333333329449 
	-3.3333418491315552 -13.419281167149459 3.333333333329449 
	-0.71536980004314521 -13.161435103418999 3.333333333329449 
	1.8019953799684145 -12.397802482350841 3.333333333329449 
	4.1220127452756703 -11.157729234427524 3.333333333329449 
	6.1555253838344797 -9.488870720381346 3.333333333329449 
	7.8243864528814502 -7.4553602461624813 3.333333333329449 
	9.0644626155355574 -5.135344450822851 3.333333333329449 
	9.8281420800746009 -2.6179802367398315 3.333333333329449 
	9.9999563851756097 -0.87266462454389115 3.333333333329449 
	10 -3.2657247977293136e-15 3.333333333329449 
	10 0 6.666666666670551 
	9.9999454400528194 1.0908307806795912 6.666666666670551 
	9.7851272224057482 3.2724544139378287 6.666666666670551 
	8.8305864259027267 6.4191608793604669 6.666666666670551 
	7.2804948950483768 9.319182623615923 6.666666666670551 
	5.1944217464013409 11.861073387953784 6.666666666670551 
	2.6525336347020145 13.947149728253676 6.666666666670551 
	-0.24748613229958294 15.497244918399524 6.666666666670551 
	-3.3941913629513669 16.451789701496203 6.666666666670551 
	-6.6666559908079588 16.774101469872029 6.666666666670551 
	-9.9391211285120669 16.451793908486842 6.666666666670551 
	-13.085827560494543 15.497253102168298 6.666666666670551 
	-15.985849212787031 13.947161571374334 6.666666666670551 
	-18.527740054634457 11.861088422705084 6.666666666670551 
	-20.613816433599052 9.3192002916981629 6.666666666670551 
	-22.16391162376884 6.4191805585520409 6.666666666670551 
	-23.118456368081823 3.2724752944442028 6.666666666670551 
	-23.440768175357448 1.0637156648840573e-05 6.666666666670551 
	-23.118460575071296 -3.2724544139376106 6.666666666670551 
	-22.163919691277659 -6.4191608793591586 6.666666666670551 
	-20.613828218592054 -9.3191826236159194 6.666666666670551 
	-18.527755089390411 -11.861073387953784 6.666666666670551 
	-15.985866997132426 -13.947149728253674 6.666666666670551 
	-13.085847239684966 -15.497244918398355 6.666666666670551 
	-9.9391419509014547 -16.451789701495038 6.666666666670551 
	-6.666677303816428 -16.774101469873191 6.666666666670551 
	-3.3942122434736297 -16.451793908488007 6.666666666670551 
	-0.24750575335943126 -15.497253102169454 6.666666666670551 
	2.6525159472441793 -13.947161571374913 6.666666666670551 
	5.1944066922747254 -11.861088422706839 6.666666666670551 
	7.2804830713041904 -9.3192002916984507 6.666666666670551 
	8.8305782808857103 -6.4191805585521955 6.666666666670551 
	9.7851776141163853 -3.2724752944489541 6.666666666670551 
	9.9999454400528194 -1.0908307806687947 6.666666666670551 
	10 -4.0821559971548051e-15 6.666666666670551 
	10 0 10 
	9.9999345501522861 1.3089969368140855 10 
	9.7421526616854699 3.9269453043226572 10 
	8.5967037100955075 7.7029930714876649 10 
	6.7365938640753598 11.183019134803262 10 
	4.2333061018493865 14.233288044278719 10 
	1.1830403682630548 16.736579676331992 10 
	-2.2969833351575142 18.5966939374077 10 
	-6.0730296491052389 19.742147679612948 10 
	-9.9999872313680171 20.128921758013938 10 
	-13.926945304323308 19.742152661685473 10 
	-17.702993071488535 18.596703710094342 10 
	-21.183019134804425 16.736593864075367 10 
	-24.233288044277558 14.233306101849385 10 
	-26.736579676330255 11.183040368262189 10 
	-28.596693937407693 7.7030166648427754 10 
	-29.742147679612948 3.9269703508941802 10 
	-30.128921758011611 1.2768631842963174e-05 10 
	-29.742152661684312 -3.9269453043224374 10 
	-28.596703710096669 -7.7029930714863566 10 
	-26.736593864077108 -11.18301913480326 10 
	-24.233306101852875 -14.233288044278719 10 
	-21.183040368264223 -16.736579676331989 10 
	-17.703016664842494 -18.596693937406531 10 
	-13.926970350894186 -19.742147679611779 10 
	-10.00001276863199 -20.128921758015103 10 
	-6.0730546956778495 -19.742152661686639 10 
	-2.2970069285120429 -18.596703710095497 10 
	1.1830191348055821 -16.736593864075942 10 
	4.2332880442804548 -14.23330610185114 10 
	6.7365796763314112 -11.183040368262478 10 
	8.5966939374065277 -7.7030166648429281 10 
	9.7422131294606569 -3.9269703508950573 10 
	9.9999345501522861 -1.308996936811041 10 
	10 -4.8985871965894122e-15 10 
	0.001 
	0 
	0 
	0 
	0 
	0 
	0 
	} I I I I #
-10 coedge $-1 -1 -1 $-1 $10 $10 $14 $15 reversed $5 $-1 #
-11 loop $-1 -1 -1 $-1 $-1 $16 $7 F unknown #
-12 plane-surface $-1 -1 -1 $-1 -10 0 10 0 0 1 1 0 0 forward_v I I I I #
-13 coedge $-1 -1 -1 $-1 $14 $17 $18 $19 reversed $8 $20 #
-14 coedge $-1 -1 -1 $-1 $18 $13 $10 $15 forward $8 $21 #
-15 edge $-1 -1 -1 $-1 $22 1 $22 0 $10 $23 forward @7 unknown F #
-16 coedge $-1 -1 -1 $-1 $16 $16 $17 $24 forward $11 $-1 #
-17 coedge $-1 -1 -1 $-1 $13 $18 $16 $24 reversed $8 $25 #
-18 coedge $-1 -1 -1 $-1 $17 $14 $13 $19 forward $8 $26 #
-19 edge $-1 -1 -1 $-1 $22 1 $27 0 $18 $28 forward @7 unknown F #
-20 pcurve $-1 -1 -1 $-1 0 forward { exppc 1 nubs 1 open 2 
	-10 1 -0 1 
	0 10 
	0 0 
	0.001 
	-1 
	spline forward { ref 0 } I I I I 
	} 0 0 #
-21 pcurve $-1 -1 -1 $-1 0 forward { exppc 2 nubs 1 periodic 2 
	0 1 6.2831853071795862 1 
	0 0 
	6.2831853071795862 0 
	0.001 
	-1 
	spline forward { ref 0 } I I I I 
	} 0 0 #
-22 vertex $-1 -1 -1 $-1 $15 $29 #
-23 ellipse-curve $-1 -1 -1 $-1 0 0 0 0 0 1 10 0 0 1 I I #
-24 edge $-1 -1 -1 $-1 $27 1 $27 0 $16 $30 forward @7 unknown F #
-25 pcurve $-1 -1 -1 $-1 0 forward { exppc 3 nubs 1 periodic 2 
	-6.2831853071795862 1 -0 1 
	6.2831853071795862 10 
	0 10 
	0.001 
	-1 
	spline forward { ref 0 } I I I I 
	} 0 0 #
-26 pcurve $-1 -1 -1 $-1 0 forward { exppc 4 nubs 1 open 2 
	0 1 10 1 
	6.2831853071795862 0 
	6.2831853071795862 10 
	0.001 
	-1 
	spline forward { ref 0 } I I I I 
	} 0 0 #
-27 vertex $-1 -1 -1 $-1 $24 $31 #
-28 straight-curve $-1 -1 -1 $-1 10 0 0 0 0 1 I I #
-29 point $-1 -1 -1 $-1 10 0 0 #
-30 ellipse-curve $-1 -1 -1 $-1 -10 0 10 0 0 1 20 0 0 1 I I #
-31 point $-1 -1 -1 $-1 10 0 10 #
End-of-ACIS-data 