3200 0 1 0           
9 SimpleApi 14 ACIS 34.0.1 NT 24 Mon Nov 18 16:41:38 2024 
1 9.9999999999999995e-07 1e-10 
T @77 4B2C6PMPE7A27NYV3C67VCNGS2PKJ6N3W8TCW2Q4Y83MEG797DRVE86WX8RVJXP5FCM3F66UEAR3P 
-0 body $-1 -1 -1 $-1 0 $1 $-1 $-1 F #
-1 lump $-1 -1 -1 $-1 $-1 $2 $0 F #
-2 shell $-1 -1 -1 $-1 $-1 $-1 $3 $-1 $1 F #
-3 face $-1 -1 -1 $-1 $4 $5 $2 $-1 $6 reversed single F F #
-4 face $-1 -1 -1 $-1 $7 $8 $2 $-1 $9 forward single F F #
-5 loop $-1 -1 -1 $-1 $-1 $10 $3 F unknown #
-6 plane-surface $-1 -1 -1 $-1 0 0 0 0 0 1 1 0 0 forward_v I I I I #
-7 face $-1 -1 -1 $-1 $-1 $11 $2 $-1 $12 forward single F F #
-8 loop $-1 -1 -1 $-1 $-1 $13 $4 F unknown #
-9 spline-surface $-1 -1 -1 $-1 forward { sweepsur 0 R11 
	angled 
	ellipse 0 0 0 0 0 1 20 0 0 1 I I 
	straight 20 0 0 0 0 1 I I 
	angled 
	0 0 1 
	non_rigid 
	non_axis_sweep 
	20 0 0 
	0 1 0 
	-1 0 0 
	0 0 1 
	0 10 
	0 0 @23 DOMAIN(VEC(0,1,0),0,10) 
	0 
	@1 0 
	0 
	@24 VEC(1-0.05*X,1-0.05*X,1) 
	0 
	full nubs 3 3 periodic open none none 33 2 
	0 3 0.19634954084936207 1 0.39269908169872414 1 0.58904862254808621 1 0.78539816339744828 1 
	0.98174770424681035 1 1.1780972450961724 1 1.3744467859455345 1 1.5707963267948966 1 1.7671458676442586 1 
	1.9634954084936207 1 2.1598449493429825 1 2.3561944901923448 1 2.5525440310417071 1 2.748893571891069 1 
	2.9452431127404308 1 3.1415926535897931 1 3.3379421944391554 1 3.5342917352885173 1 3.7306412761378791 1 
	3.9269908169872414 1 4.1233403578366037 1 4.3196898986859651 1 4.5160394395353274 1 4.7123889803846897 1 
	4.908738521234052 1 5.1050880620834143 1 5.3014376029327757 1 5.497787143782138 1 5.6941366846315002 1 
	5.8904862254808616 1 6.0868357663302239 1 6.2831853071795862 3 
	0 3 10 3 
	20 0 0 
	19.999934550152286 1.3089969368140855 0 
	19.742152661685473 3.9269453043226572 0 
	18.596703710095507 7.7029930714876649 0 
	16.73659386407536 11.183019134803262 0 
	14.233306101849386 14.233288044278719 0 
	11.183040368263054 16.736579676331992 0 
	7.7030166648424867 18.5966939374077 0 
	3.9269703508947602 19.742147679612948 0 
	1.2768631983961498e-05 20.128921758013938 0 
	-3.9269453043233078 19.742152661685473 0 
	-7.7029930714885335 18.596703710094342 0 
	-11.183019134804422 16.736593864075367 0 
	-14.233288044277558 14.233306101849385 0 
	-16.736579676330255 11.183040368262189 0 
	-18.596693937407693 7.7030166648427754 0 
	-19.742147679612948 3.9269703508941802 0 
	-20.128921758011611 1.2768631842963174e-05 0 
	-19.742152661684312 -3.9269453043224374 0 
	-18.596703710096669 -7.7029930714863566 0 
	-16.736593864077108 -11.18301913480326 0 
	-14.233306101852875 -14.233288044278719 0 
	-11.183040368264225 -16.736579676331989 0 
	-7.7030166648424903 -18.596693937406531 0 
	-3.9269703508941864 -19.742147679611779 0 
	-1.2768631989068524e-05 -20.128921758015103 0 
	3.9269453043221505 -19.742152661686639 0 
	7.702993071487958 -18.596703710095497 0 
	11.183019134805583 -16.736593864075942 0 
	14.233288044280455 -14.23330610185114 0 
	16.736579676331409 -11.183040368262478 0 
	18.596693937406531 -7.7030166648429281 0 
	19.742213129460659 -3.9269703508950573 0 
	19.999934550152286 -1.308996936811041 0 
	20 -4.8985871965894122e-15 0 
	20 0 3.333333333329449 
	19.999945478806914 1.0908307806795912 3.333333333329449 
	19.785127203058309 3.2724544139378287 3.333333333329449 
	18.830586435495029 6.4191608793604669 3.333333333329449 
	17.280494904662888 9.319182623615923 3.333333333329449 
	15.194421717417185 11.861073387953784 3.333333333329449 
	12.652533624998686 13.947149728253676 3.333333333329449 
	9.7525138677004186 15.497244918399524 3.333333333329449 
	6.6058086370486322 16.451789701496203 3.333333333329449 
	3.3333440091920421 16.774101469872029 3.333333333329449 
	0.060878871487931363 16.451793908486842 3.333333333329449 
	-3.0858275604945424 15.497253102168298 3.333333333329449 
	-5.9858492127870297 13.947161571374334 3.333333333329449 
	-8.5277400546344584 11.861088422705084 3.333333333329449 
	-10.613816433599048 9.3192002916981629 3.333333333329449 
	-12.163911623768842 6.4191805585520409 3.333333333329449 
	-13.118456368081823 3.2724752944442028 3.333333333329449 
	-13.440768175357444 1.0637156648840573e-05 3.333333333329449 
	-13.118460575071296 -3.2724544139376106 3.333333333329449 
	-12.163919691277661 -6.4191608793591586 3.333333333329449 
	-10.613828218592047 -9.3191826236159194 3.333333333329449 
	-8.5277550893904124 -11.861073387953784 3.333333333329449 
	-5.9858669971324261 -13.947149728253674 3.333333333329449 
	-3.0858472396849641 -15.497244918398355 3.333333333329449 
	0.060858049098541978 -16.451789701495038 3.333333333329449 
	3.333322696183572 -16.774101469873191 3.333333333329449 
	6.6057877565263716 -16.451793908488007 3.333333333329449 
	9.7524942466405697 -15.497253102169454 3.333333333329449 
	12.652515937540851 -13.947161571374913 3.333333333329449 
	15.194406702044667 -11.861088422706839 3.333333333329449 
	17.280483080918696 -9.3192002916984507 3.333333333329449 
	18.830578290478016 -6.4191805585521955 3.333333333329449 
	19.785177594768946 -3.2724752944489541 3.333333333329449 
	19.999945478806914 -1.0908307806687947 3.333333333329449 
	20 -4.0821559971548051e-15 3.333333333329449 
	20 0 6.666666666670551 
	19.999956346421513 0.87266462454541238 6.666666666670551 
	19.828101789469315 2.6179635328556961 6.666666666670551 
	19.064469168402908 5.135328706071852 6.666666666670551 
	17.824395910828066 7.455346097966018 6.666666666670551 
	16.15553739660222 9.4888586978413407 6.666666666670551 
	14.122026927395314 11.157719776555792 6.666666666670551 
	11.802011110186262 12.397795968334975 6.666666666670551 
	9.2846468699167488 13.16143179854617 6.666666666670551 
	6.6666751825100299 13.419281167148878 6.666666666670551 
	4.0487031332730128 13.161435103418416 6.666666666670551 
	1.5313379532617422 12.397802482350261 6.666666666670551 
	-0.78867941191141611 11.157729234427237 6.666666666670551 
	-2.8221920311589255 9.4888707203804668 6.666666666670551 
	-4.4910531196504264 7.4553602461623392 6.666666666670551 
	-5.7311293210967946 5.1353444508227764 6.666666666670551 
	-6.4947651513376021 2.6179802367393914 6.666666666670551 
	-6.7526145004140687 8.5109468537236665e-06 6.666666666670551 
	-6.4947684174551714 -2.617963532855585 6.666666666670551 
	-5.731135796359152 -5.1353287060711974 6.666666666670551 
	-4.4910625775236133 -7.4553460979660198 6.666666666670551 
	-2.8222040633889023 -9.4888586978413443 6.666666666670551 
	-0.78869357464095657 -11.157719776555787 6.666666666670551 
	1.5313222230441812 -12.397795968334389 6.666666666670551 
	4.0486864439372257 -13.161431798545587 6.666666666670551 
	6.6666581508684466 -13.419281167149459 6.666666666670551 
	9.284630199956851 -13.161435103418999 6.666666666670551 
	11.801995379968707 -12.397802482350841 6.666666666670551 
	14.122012784043985 -11.157729234427524 6.666666666670551 
	16.155525325622797 -9.488870720381346 6.666666666670551 
	17.824386414201946 -7.4553602461624813 6.666666666670551 
	19.064462654385292 -5.135344450822851 6.666666666670551 
	19.828142099422038 -2.6179802367398315 6.666666666670551 
	19.999956346421513 -0.87266462454389115 6.666666666670551 
	20 -3.2657247977293136e-15 6.666666666670551 
	20 0 10 
	19.999967275076141 0.65449846840704273 10 
	19.871076330842158 1.9634726521613286 10 
	19.298351855048338 3.8514965357438324 10 
	18.368296932038547 5.5915095674016309 10 
	17.116653050924114 7.1166440221393596 10 
	15.591520184130944 8.368289838165996 10 
	13.851508332421243 9.29834696870385 10 
	11.963485175447671 9.8710738398064741 10 
	10.000006384315991 10.064460879006969 10 
	8.0365273478383461 9.8710763308427367 10 
	6.1485034642557332 9.2983518550471711 10 
	4.4084904325977892 8.3682969320376834 10 
	2.8833559778612208 7.1166530509246924 10 
	1.6317101618348739 5.5915201841310944 10 
	0.70165303129615186 3.8515083324213877 10 
	0.12892616019352615 1.9634851754470901 10 
	-0.064460879005806118 6.384315921481587e-06 10 
	0.12892366915784487 -1.9634726521612187 10 
	0.70164814495166561 -3.8514965357431783 10 
	1.631703067961447 -5.59150956740163 10 
	2.8833469490735615 -7.1166440221393596 10 
	4.4084798158678886 -8.3682898381659943 10 
	6.1484916675787549 -9.2983469687032656 10 
	8.0365148245529063 -9.8710738398058897 10 
	9.999993615684005 -10.064460879007552 10 
	11.963472652161075 -9.8710763308433194 10 
	13.851496535744269 -9.2983518550477484 10 
	15.591509567402209 -8.3682969320379712 10 
	17.116644022141102 -7.1166530509255699 10 
	18.368289838166284 -5.5915201841312392 10 
	19.298346968702681 -3.8515083324214641 10 
	19.871106564730326 -1.9634851754475287 10 
	19.999967275076141 -0.65449846840552051 10 
	20 -2.4492935982947061e-15 10 
	0.001 
	0 
	0 
	0 
	0 
	0 
	0 
	} I I I I #
-10 coedge $-1 -1 -1 $-1 $10 $10 $14 $15 reversed $5 $-1 #
-11 loop $-1 -1 -1 $-1 $-1 $16 $7 F unknown #
-12 plane-surface $-1 -1 -1 $-1 10 0 10 0 0 1 1 0 0 forward_v I I I I #
-13 coedge $-1 -1 -1 $-1 $14 $17 $18 $19 reversed $8 $20 #
-14 coedge $-1 -1 -1 $-1 $18 $13 $10 $15 forward $8 $21 #
-15 edge $-1 -1 -1 $-1 $22 1 $22 0 $10 $23 forward @7 unknown F #
-16 coedge $-1 -1 -1 $-1 $16 $16 $17 $24 forward $11 $-1 #
-17 coedge $-1 -1 -1 $-1 $13 $18 $16 $24 reversed $8 $25 #
-18 coedge $-1 -1 -1 $-1 $17 $14 $13 $19 forward $8 $26 #
-19 edge $-1 -1 -1 $-1 $22 1 $27 0 $18 $28 forward @7 unknown F #
-20 pcurve $-1 -1 -1 $-1 0 forward { exppc 1 nubs 1 open 2 
	-10 1 -0 1 
	0 10 
	0 0 
	0.001 
	-1 
	spline forward { ref 0 } I I I I 
	} 0 0 #
-21 pcurve $-1 -1 -1 $-1 0 forward { exppc 2 nubs 1 periodic 2 
	0 1 6.2831853071795862 1 
	0 0 
	6.2831853071795862 0 
	0.001 
	-1 
	spline forward { ref 0 } I I I I 
	} 0 0 #
-22 vertex $-1 -1 -1 $-1 $15 $29 #
-23 ellipse-curve $-1 -1 -1 $-1 0 0 0 0 0 1 20 0 0 1 I I #
-24 edge $-1 -1 -1 $-1 $27 1 $27 0 $16 $30 forward @7 unknown F #
-25 pcurve $-1 -1 -1 $-1 0 forward { exppc 3 nubs 1 periodic 2 
	-6.2831853071795862 1 -0 1 
	6.2831853071795862 10 
	0 10 
	0.001 
	-1 
	spline forward { ref 0 } I I I I 
	} 0 0 #
-26 pcurve $-1 -1 -1 $-1 0 forward { exppc 4 nubs 1 open 2 
	0 1 10 1 
	6.2831853071795862 0 
	6.2831853071795862 10 
	0.001 
	-1 
	spline forward { ref 0 } I I I I 
	} 0 0 #
-27 vertex $-1 -1 -1 $-1 $24 $31 #
-28 straight-curve $-1 -1 -1 $-1 20 0 0 0 0 1 I I #
-29 point $-1 -1 -1 $-1 20 0 0 #
-30 ellipse-curve $-1 -1 -1 $-1 10 0 10 0 0 1 10 0 0 1 I I #
-31 point $-1 -1 -1 $-1 20 0 10 #
End-of-ACIS-data 