3200 0 1 0           
9 SimpleApi 14 ACIS 34.0.1 NT 24 Mon Nov 18 16:41:38 2024 
1 9.9999999999999995e-07 1e-10 
T @77 4B2C6PMPE7A27NYV3C67VCNGS2PKJ6N3W8TCW2Q4Y83MEG797DRVE86WX8RVJXP5FCM3F66UEAR3P 
-0 body $-1 -1 -1 $-1 0 $1 $-1 $-1 F #
-1 lump $-1 -1 -1 $-1 $-1 $2 $0 F #
-2 shell $-1 -1 -1 $-1 $-1 $-1 $3 $-1 $1 F #
-3 face $-1 -1 -1 $-1 $4 $5 $2 $-1 $6 reversed single F F #
-4 face $-1 -1 -1 $-1 $7 $8 $2 $-1 $9 forward single F F #
-5 loop $-1 -1 -1 $-1 $-1 $10 $3 F unknown #
-6 plane-surface $-1 -1 -1 $-1 0 0 0 0 0 1 1 0 0 forward_v I I I I #
-7 face $-1 -1 -1 $-1 $-1 $11 $2 $-1 $12 forward single F F #
-8 loop $-1 -1 -1 $-1 $-1 $13 $4 F unknown #
-9 spline-surface $-1 -1 -1 $-1 forward { sweepsur 0 R11 
	angled 
	ellipse 0 0 0 0 0 1 10 0 0 1 I I 
	straight 10 0 0 0 0 1 I I 
	angled 
	0 0 1 
	non_rigid 
	non_axis_sweep 
	10 0 0 
	0 1 0 
	-1 0 0 
	0 0 1 
	0 10 
	0 0 @23 DOMAIN(VEC(0,1,0),0,10) 
	0 
	@1 0 
	0 
	@10 VEC(1,1,1) 
	0 
	full nubs 5 1 periodic open none none 6 2 
	0 5 1.2566370614359172 3 2.5132741228718345 3 3.7699111843077517 3 5.026548245743669 3 
	6.2831853071795862 5 
	0 1 10 1 
	10 0 0 
	10 2.5132741228718345 0 
	9.2104316479128521 5.026548245743669 0 
	7.6267113683204126 7.2063522056582521 0 
	3.3341599827650255 10.261489289264443 0 
	-1.9343515588525655 10.312929867618999 0 
	-4.4968647999056168 9.4803188437432429 0 
	-8.7289441588085985 6.3419491559584289 0 
	-10.405926657475078 1.3471929360388275 0 
	-10.405926657475078 -1.3471929360388244 0 
	-8.7289441588086003 -6.3419491559584253 0 
	-4.4968647999056204 -9.4803188437432411 0 
	-1.9343515588525684 -10.312929867619001 0 
	3.3341599827650228 -10.261489289264446 0 
	7.6267113683204117 -7.2063522056582547 0 
	9.2104316479128503 -5.0265482457436717 0 
	10 -2.5132741228718372 0 
	10 -2.4492935982947061e-15 0 
	10 0 10 
	10 2.5132741228718345 10 
	9.2104316479128521 5.026548245743669 10 
	7.6267113683204126 7.2063522056582521 10 
	3.3341599827650255 10.261489289264443 10 
	-1.9343515588525655 10.312929867618999 10 
	-4.4968647999056168 9.4803188437432429 10 
	-8.7289441588085985 6.3419491559584289 10 
	-10.405926657475078 1.3471929360388275 10 
	-10.405926657475078 -1.3471929360388244 10 
	-8.7289441588086003 -6.3419491559584253 10 
	-4.4968647999056204 -9.4803188437432411 10 
	-1.9343515588525684 -10.312929867619001 10 
	3.3341599827650228 -10.261489289264446 10 
	7.6267113683204117 -7.2063522056582547 10 
	9.2104316479128503 -5.0265482457436717 10 
	10 -2.5132741228718372 10 
	10 -2.4492935982947061e-15 10 
	0.001 
	0 
	0 
	0 
	0 
	0 
	0 
	} I I I I #
-10 coedge $-1 -1 -1 $-1 $10 $10 $14 $15 reversed $5 $-1 #
-11 loop $-1 -1 -1 $-1 $-1 $16 $7 F unknown #
-12 plane-surface $-1 -1 -1 $-1 0 0 10 0 0 1 1 0 0 forward_v I I I I #
-13 coedge $-1 -1 -1 $-1 $14 $17 $18 $19 reversed $8 $20 #
-14 coedge $-1 -1 -1 $-1 $18 $13 $10 $15 forward $8 $21 #
-15 edge $-1 -1 -1 $-1 $22 1 $22 0 $10 $23 forward @7 unknown F #
-16 coedge $-1 -1 -1 $-1 $16 $16 $17 $24 forward $11 $-1 #
-17 coedge $-1 -1 -1 $-1 $13 $18 $16 $24 reversed $8 $25 #
-18 coedge $-1 -1 -1 $-1 $17 $14 $13 $19 forward $8 $26 #
-19 edge $-1 -1 -1 $-1 $22 1 $27 0 $18 $28 forward @7 unknown F #
-20 pcurve $-1 -1 -1 $-1 0 forward { exppc 1 nubs 1 open 2 
	-10 1 -0 1 
	0 10 
	0 0 
	0.001 
	-1 
	spline forward { ref 0 } I I I I 
	} 0 0 #
-21 pcurve $-1 -1 -1 $-1 0 forward { exppc 2 nubs 1 periodic 2 
	0 1 6.2831853071795862 1 
	0 0 
	6.2831853071795862 0 
	0.001 
	-1 
	spline forward { ref 0 } I I I I 
	} 0 0 #
-22 vertex $-1 -1 -1 $-1 $15 $29 #
-23 ellipse-curve $-1 -1 -1 $-1 0 0 0 0 0 1 10 0 0 1 I I #
-24 edge $-1 -1 -1 $-1 $27 1 $27 0 $16 $30 forward @7 unknown F #
-25 pcurve $-1 -1 -1 $-1 0 forward { exppc 3 nubs 1 periodic 2 
	-6.2831853071795862 1 -0 1 
	6.2831853071795862 10 
	0 10 
	0.001 
	-1 
	spline forward { ref 0 } I I I I 
	} 0 0 #
-26 pcurve $-1 -1 -1 $-1 0 forward { exppc 4 nubs 1 open 2 
	0 1 10 1 
	6.2831853071795862 0 
	6.2831853071795862 10 
	0.001 
	-1 
	spline forward { ref 0 } I I I I 
	} 0 0 #
-27 vertex $-1 -1 -1 $-1 $24 $31 #
-28 straight-curve $-1 -1 -1 $-1 10 0 0 0 0 1 I I #
-29 point $-1 -1 -1 $-1 10 0 0 #
-30 ellipse-curve $-1 -1 -1 $-1 0 0 10 0 0 1 10 0 0 1 I I #
-31 point $-1 -1 -1 $-1 10 0 10 #
End-of-ACIS-data 