200 0 1 0           
15 acis_api_access 14 ACIS 34.0.1 NT 24 Tue Aug 13 13:22:51 2024 
1 9.9999999999999995e-07 1e-10 
-0 body $-1 $1 $-1 $-1 #
-1 lump $-1 $-1 $2 $0 #
-2 shell $-1 $-1 $-1 $3 $-1 $1 #
-3 face $-1 $4 $5 $2 $-1 $6 forward single #
-4 face $-1 $-1 $7 $2 $-1 $8 reversed single #
-5 loop $-1 $-1 $9 $3 #
-6 spline-surface $-1 forward { rotsur 
	ellipse 0 0 0 0 1 0 0 0 2 0.5 I I 
	0 0 0 0 0 1 
	F 0 F 1.5707963267948966 F 0 F 6.2831853071795862 } I I I I #
-7 loop $-1 $-1 $10 $4 #
-8 plane-surface $-1 0 0 0 0 0 1 1 0 0 forward_v I I I I #
-9 coedge $-1 $11 $12 $10 $13 0 $5 $14 #
-10 coedge $-1 $10 $10 $9 $13 1 $7 $-1 #
-11 coedge $-1 $12 $9 $12 $15 1 $5 $16 #
-12 coedge $-1 $9 $11 $11 $15 0 $5 $17 #
-13 edge $-1 $18 $18 $10 $19 forward #
-14 pcurve $-1 0 forward { exppc nubs 1 periodic 2 
	0 1 6.2831853071795862 1 
	1.5707963267948966 0 
	1.5707963267948966 6.2831853071795862 
	0.001 
	spline forward { ref 0 } I I I I 
	} 0 0 #
-15 edge $-1 $20 $18 $11 $21 forward #
-16 pcurve $-1 0 forward { exppc nubs 1 open 2 
	-1.5707963267948966 1 -0 1 
	1.5707963267948966 6.2831853071795862 
	0 6.2831853071795862 
	0 
	spline forward { ref 0 } I I I I 
	} 0 0 #
-17 pcurve $-1 0 forward { exppc nubs 1 open 2 
	0 1 1.5707963267948966 1 
	0 0 
	1.5707963267948966 0 
	0 
	spline forward { ref 0 } I I I I 
	} 0 0 #
-18 vertex $-1 $13 $22 #
-19 ellipse-curve $-1 0 0 0 0 0 1 1 0 0 1 I I #
-20 vertex $-1 $15 $23 #
-21 ellipse-curve $-1 0 0 0 0 1 0 0 0 2 0.5 I I #
-22 point $-1 1 0 0 #
-23 point $-1 0 0 2 #
End-of-ACIS-data 